<svg id="Component_30_1" data-name="Component 30 – 1" xmlns="http://www.w3.org/2000/svg" width="56" height="56" viewBox="0 0 56 56">
  <g id="Ellipse_76" data-name="Ellipse 76" fill="#f37024" stroke="#545ee4" stroke-width="1" opacity="0.05">
    <circle cx="28" cy="28" r="28" stroke="none"/>
    <circle cx="28" cy="28" r="27.5" fill="none"/>
  </g>
  <g id="Ellipse_81" data-name="Ellipse 81" fill="none" stroke="#f37024" stroke-width="1">
    <circle cx="28" cy="28" r="28" stroke="none"/>
    <circle cx="28" cy="28" r="27.5" fill="none"/>
  </g>
  <g id="restroom" transform="translate(14.737 13.998)">
    <path id="Path_684" data-name="Path 684" d="M8.947,52.893,6.685,51.6a3.114,3.114,0,1,0-3.744,0L.678,52.9A1.352,1.352,0,0,0,0,54.1l.017.732A.547.547,0,0,0,1.11,54.8l-.017-.73a.258.258,0,0,1,.129-.228l2.763-1.581a.254.254,0,0,1,.128-.034h1.4a.254.254,0,0,1,.138.04l.022.013L8.4,53.843a.259.259,0,0,1,.129.251c0,.014,0,.028,0,.042l-.194,8.3a.258.258,0,0,1-.173.238l-.013,0-1.564.582a.547.547,0,0,0-.356.511l-.007,3.846a.257.257,0,0,1-.257.256l-2.308,0a.26.26,0,0,1-.259-.259c0-1.11,0-2.332,0-3.846a.547.547,0,0,0-.356-.511l-1.583-.59a.258.258,0,0,1-.167-.238s0-.006,0-.009l-.076-3.246A.547.547,0,1,0,.118,59.2l.076,3.242a1.359,1.359,0,0,0,.879,1.25l1.228.457c0,1.341,0,2.45,0,3.465a1.355,1.355,0,0,0,1.354,1.353l2.308,0a1.351,1.351,0,0,0,1.35-1.349l.007-3.466,1.2-.448a1.354,1.354,0,0,0,.9-1.246l.194-8.278a1.355,1.355,0,0,0-.677-1.286Zm-4.134-5.8a2.02,2.02,0,1,1-2.02,2.02A2.022,2.022,0,0,1,4.812,47.094Zm0,0" transform="translate(0.001 -43.484)" fill="#f37024"/>
    <path id="Path_685" data-name="Path 685" d="M313.448,61.781l-.154-.638a.547.547,0,1,0-1.063.257l.154.638a.256.256,0,0,1-.176.306l-.024.008-2.655.919a.547.547,0,0,0-.368.516l-.007,3.833a.257.257,0,0,1-.257.256l-2.308,0a.255.255,0,0,1-.19-.083.261.261,0,0,1-.068-.2q0-.023,0-.047l-.007-3.762a.547.547,0,0,0-.368-.516l-2.689-.931a.258.258,0,0,1-.165-.3l2.021-8.362a.256.256,0,0,1,.1-.145l1.67-1.247a.255.255,0,0,1,.154-.051h1.4a.255.255,0,0,1,.163.057l.017.013,1.646,1.227a.258.258,0,0,1,.1.164c0,.013,0,.026.008.038l.826,3.415a.547.547,0,1,0,1.063-.257l-.822-3.4a1.347,1.347,0,0,0-.521-.839l-1.357-1.011a3.114,3.114,0,1,0-3.642,0l-1.356,1.013a1.354,1.354,0,0,0-.505.765l-2.021,8.361a1.343,1.343,0,0,0,.871,1.594l2.321.8.006,3.353a1.353,1.353,0,0,0,1.351,1.442l2.308,0a1.352,1.352,0,0,0,1.35-1.349l.007-3.443,2.277-.788a1.349,1.349,0,0,0,.916-1.608Zm-5.7-14.683a2.02,2.02,0,1,1-2.02,2.02A2.022,2.022,0,0,1,307.744,47.1Zm0,0" transform="translate(-285.486 -43.488)" fill="#f37024"/>
    <path id="Path_686" data-name="Path 686" d="M211.887,0a1.642,1.642,0,0,0-1.641,1.641V26.36a1.641,1.641,0,1,0,3.281,0V1.641A1.642,1.642,0,0,0,211.887,0Zm.547,26.36a.547.547,0,0,1-1.094,0V1.641a.547.547,0,0,1,1.094,0Zm0,0" transform="translate(-198.748 0)" fill="#f37024"/>
    <path id="Path_687" data-name="Path 687" d="M1.8,238.266a.547.547,0,0,0,.547-.547h0a.547.547,0,1,0-.547.547Zm0,0" transform="translate(-1.182 -224.201)" fill="#f37024"/>
    <path id="Path_688" data-name="Path 688" d="M479.752,276.314a.547.547,0,1,0,.676.376h0a.547.547,0,0,0-.676-.375Zm0,0" transform="translate(-453.14 -261.183)" fill="#f37024"/>
  </g>
</svg>
