<svg xmlns="http://www.w3.org/2000/svg" width="128" height="130.695" viewBox="0 0 128 130.695">
  <g id="Component_46_1" data-name="Component 46 – 1" transform="translate(6)">
    <g id="Component_44_1" data-name="Component 44 – 1">
      <g id="stamp" transform="translate(11.713)">
        <g id="Group_1138" data-name="Group 1138" transform="translate(2.516 0)">
          <path id="Path_841" data-name="Path 841" d="M94.653,84.062a1.309,1.309,0,0,0-1.838.223l-6.059,7.736-3.377-2.5a1.309,1.309,0,0,0-1.556,2.106l4.4,3.253a1.309,1.309,0,0,0,1.809-.246L94.876,85.9a1.309,1.309,0,0,0-.223-1.838Z" transform="translate(-67.537 -69.155)" fill="#545ee4"/>
          <path id="Path_842" data-name="Path 842" d="M49.348,44.667A3.842,3.842,0,0,0,45.511,48.5V66.233a3.842,3.842,0,0,0,3.837,3.837H67.077a3.842,3.842,0,0,0,3.837-3.837V48.5a3.842,3.842,0,0,0-3.837-3.837ZM68.3,48.5V66.233a1.22,1.22,0,0,1-1.218,1.218H49.348a1.22,1.22,0,0,1-1.218-1.218V48.5a1.22,1.22,0,0,1,1.218-1.218H67.077A1.22,1.22,0,0,1,68.3,48.5Z" transform="translate(-38.004 -36.869)" fill="#545ee4"/>
          <path id="Path_843" data-name="Path 843" d="M38.21,86.772H9.656A4.527,4.527,0,0,1,5.135,82.25V7.14A4.527,4.527,0,0,1,9.656,2.619H52.329a3.136,3.136,0,0,1,.52.046v8.964a7.148,7.148,0,0,0,7.14,7.14h8.964a3.138,3.138,0,0,1,.046.52V30.175a1.309,1.309,0,0,0,2.619,0V19.29a5.69,5.69,0,0,0-1.677-4.049L56.378,1.677A5.689,5.689,0,0,0,52.329,0H9.656a7.148,7.148,0,0,0-7.14,7.14V82.25a7.148,7.148,0,0,0,7.14,7.14H38.21a1.309,1.309,0,1,0,0-2.619ZM67.148,16.151H59.989a4.527,4.527,0,0,1-4.521-4.521V4.471Z" transform="translate(-2.516 0)" fill="#bcc0f4"/>
          <path id="Path_844" data-name="Path 844" d="M264.288,233.642h-7.994c-1.5-4.019-4.532-5.382-4.532-10.875v-.031a13.178,13.178,0,0,1,2.937-8.393,11.781,11.781,0,1,0-18.307-.155,13.776,13.776,0,0,1,3.063,8.53v.049c0,5.5-3.036,6.873-4.532,10.875H226.93a6.567,6.567,0,0,0-6.559,6.559v2.863a2.7,2.7,0,0,0,2.149,2.642v1.4a3.3,3.3,0,0,0,3.295,3.295H265.4a3.3,3.3,0,0,0,3.295-3.295v-1.4a2.7,2.7,0,0,0,2.149-2.642V240.2A6.567,6.567,0,0,0,264.288,233.642Zm-22.213-10.875v-.049a16.4,16.4,0,0,0-3.635-10.163,9.162,9.162,0,1,1,14.24.121,15.8,15.8,0,0,0-3.537,10.06v.031c0,5.882,3.1,8.339,4.31,10.875H237.765C238.977,231.091,242.075,228.659,242.075,222.766ZM222.99,240.2a3.945,3.945,0,0,1,3.94-3.94h37.358a3.945,3.945,0,0,1,3.94,3.94v2.863a.08.08,0,0,1-.08.08H223.07a.08.08,0,0,1-.08-.08Zm42.414,7.581h-39.59a.677.677,0,0,1-.676-.676v-1.343H266.08v1.343A.677.677,0,0,1,265.4,247.781Z" transform="translate(-182.336 -161.01)" fill="#bcc0f4"/>
        </g>
      </g>
      <ellipse id="Ellipse_104" data-name="Ellipse 104" cx="58" cy="2.5" rx="58" ry="2.5" transform="translate(0 119.695)" fill="#6874b2" opacity="0.15"/>
    </g>
    <path id="Path_848" data-name="Path 848" d="M4462.667,6080.667h34" transform="translate(-4438 -6037.305)" fill="none" stroke="#bcc0f4" stroke-linecap="round" stroke-width="2.5"/>
    <path id="Path_849" data-name="Path 849" d="M4462.667,6080.667h34" transform="translate(-4438 -6027.305)" fill="none" stroke="#bcc0f4" stroke-linecap="round" stroke-width="2.5"/>
    <path id="Path_850" data-name="Path 850" d="M4462.667,6080.667h34" transform="translate(-4438 -6017.305)" fill="none" stroke="#bcc0f4" stroke-linecap="round" stroke-width="2.5"/>
  </g>
</svg>
