<svg xmlns="http://www.w3.org/2000/svg" width="128" height="127.749" viewBox="0 0 128 127.749">
  <g id="Component_43_1" data-name="Component 43 – 1" transform="translate(6)">
    <g id="home" transform="translate(14.304 -27.798)">
      <g id="Group_1131" data-name="Group 1131" transform="translate(-0.001 27.798)">
        <g id="Group_1130" data-name="Group 1130" transform="translate(0 0)">
          <path id="Path_837" data-name="Path 837" d="M86.463,58.567,45.038,28.236a2.27,2.27,0,0,0-2.683,0L.929,58.567a2.271,2.271,0,0,0,2.683,3.664L43.7,32.882,83.78,62.231a2.271,2.271,0,0,0,2.683-3.664Z" transform="translate(0.001 -27.798)" fill="#bcc0f4"/>
        </g>
      </g>
      <g id="Group_1133" data-name="Group 1133" transform="translate(9.635 62.746)">
        <g id="Group_1132" data-name="Group 1132">
          <path id="Path_838" data-name="Path 838" d="M122.3,232.543a2.271,2.271,0,0,0-2.271,2.271v36.143H101.867V251.228a11.354,11.354,0,1,0-22.709,0v19.73H60.993V234.814a2.271,2.271,0,0,0-4.541,0v38.414a2.271,2.271,0,0,0,2.271,2.271H81.429a2.269,2.269,0,0,0,2.262-2.094,1.712,1.712,0,0,0,.009-.177v-22a6.813,6.813,0,1,1,13.626,0v22a1.668,1.668,0,0,0,.009.175,2.269,2.269,0,0,0,2.262,2.1H122.3a2.271,2.271,0,0,0,2.271-2.271V234.814A2.271,2.271,0,0,0,122.3,232.543Z" transform="translate(-56.452 -232.543)" fill="#bcc0f4"/>
        </g>
      </g>
    </g>
    <ellipse id="Ellipse_102" data-name="Ellipse 102" cx="58" cy="2.5" rx="58" ry="2.5" transform="translate(0 116.749)" fill="#6874b2" opacity="0.15"/>
    <circle id="Ellipse_103" data-name="Ellipse 103" cx="22.5" cy="22.5" r="22.5" transform="translate(36 42.749)" fill="#fff"/>
    <g id="chart" transform="translate(33.943 40.542)">
      <g id="Group_1135" data-name="Group 1135" transform="translate(3.907 3.968)">
        <g id="Group_1134" data-name="Group 1134">
          <path id="Path_839" data-name="Path 839" d="M52.577,32.106a20.4,20.4,0,1,0,20.4,20.4A20.4,20.4,0,0,0,52.577,32.106Zm0,1.942a18.433,18.433,0,0,1,15.069,7.838l-2.428,2.428a3.833,3.833,0,0,0-1.958-.554,3.885,3.885,0,0,0-3.885,3.885,3.833,3.833,0,0,0,.551,1.961l-6.36,6.359a3.767,3.767,0,0,0-3.922,0l-4.417-4.417a3.833,3.833,0,0,0,.551-1.961,3.877,3.877,0,0,0-7.632-.971h-3.6A18.479,18.479,0,0,1,52.577,34.048ZM65.2,47.645A1.942,1.942,0,1,1,63.261,45.7,1.942,1.942,0,0,1,65.2,47.645ZM53.549,59.3a1.942,1.942,0,1,1-1.942-1.942A1.942,1.942,0,0,1,53.549,59.3Zm-9.712-9.712a1.942,1.942,0,1,1-1.942-1.942A1.942,1.942,0,0,1,43.837,49.588ZM61.543,68.636A18.449,18.449,0,0,1,34.228,50.559h3.919a3.885,3.885,0,0,0,3.747,2.914,3.833,3.833,0,0,0,1.961-.551l4.417,4.417a3.833,3.833,0,0,0-.551,1.961,3.885,3.885,0,0,0,7.77,0,3.833,3.833,0,0,0-.551-1.961l6.36-6.36a3.833,3.833,0,0,0,1.961.551,3.885,3.885,0,0,0,3.885-3.885,3.833,3.833,0,0,0-.551-1.961l2.117-2.116A18.437,18.437,0,0,1,61.543,68.636Z" transform="translate(-32.182 -32.106)" fill="#545ee4"/>
        </g>
      </g>
      <g id="Group_1137" data-name="Group 1137" transform="translate(0 0.08)">
        <g id="Group_1136" data-name="Group 1136" transform="translate(0 0)">
          <path id="Path_840" data-name="Path 840" d="M48.583,9.8A3.885,3.885,0,0,0,52.33,6.882H58.3V4.939H52.33a3.877,3.877,0,0,0-7.632.971,3.833,3.833,0,0,0,.551,1.961L43.542,9.578A24.28,24.28,0,1,0,37.48,44.742l2.931,2.931,1.373,1.373L49.6,56.864a5.092,5.092,0,0,0,7.2-7.2l-7.818-7.818-1.373-1.373-2.931-2.931a24.2,24.2,0,0,0,0-26.355l1.942-1.942A3.834,3.834,0,0,0,48.583,9.8Zm0-5.827a1.942,1.942,0,1,1-1.942,1.942A1.942,1.942,0,0,1,48.583,3.968ZM55.43,51.037a3.15,3.15,0,1,1-4.4,4.5l-.051-.051-7.818-7.818,4.454-4.454Zm-9.192-9.192L41.785,46.3,39.1,43.611c.137-.1.265-.22.4-.328s.291-.237.436-.358c.213-.179.422-.359.628-.545.106-.1.207-.194.311-.291q.6-.559,1.157-1.157c.1-.1.194-.2.291-.311.186-.206.366-.416.545-.628q.183-.216.358-.436c.107-.134.222-.262.327-.4Zm-3.766-4.511c-.306.427-.622.846-.955,1.249-.1.118-.2.231-.3.347q-.446.519-.921,1.006-.207.214-.421.421-.486.475-1.006.921c-.116.1-.229.2-.347.3-.4.333-.822.649-1.249.955a22.373,22.373,0,1,1,5.2-5.2Z" transform="translate(0 -0.08)" fill="#545ee4"/>
        </g>
      </g>
    </g>
  </g>
</svg>
