<svg xmlns="http://www.w3.org/2000/svg" width="134.003" height="163.673" viewBox="0 0 134.003 163.673"><defs><style>.a{fill:#6874b2;opacity:0.15;}.b{fill:#5963e4;}.c{fill:#bcc0f4;}.d{isolation:isolate;}.e{fill:#545ee4;}</style></defs><ellipse class="a" cx="53" cy="2.5" rx="53" ry="2.5" transform="translate(14 152.673)"/><g transform="translate(73.144 86.271)"><path class="b" d="M288.788,361.686h-7.346a1.963,1.963,0,1,0,0,3.926h7.346a1.963,1.963,0,0,0,0-3.926Z" transform="translate(-279.479 -361.686)"/></g><g transform="translate(-605.997 -289.327)"><g transform="translate(663.768 289.327)"><path class="c" d="M288.652,97.321,277.963,93.2l-5.45-5.45a1.954,1.954,0,0,0-1.262-.569V82.843a20.244,20.244,0,0,0,5.135-10.114,5.615,5.615,0,0,0,1.377-.109,5.809,5.809,0,0,0,4.507-5.762V65.427a5.883,5.883,0,0,0-1.729-4.175c1.733-9.427.306-17.11-4.147-22.252-4.307-4.974-11.247-7.351-20.067-6.874a26.291,26.291,0,0,0-15.076,5.562,10.342,10.342,0,0,0-4.039,1.372c-2.18,1.308-4.779,4.056-4.779,9.718a49.017,49.017,0,0,0,1.361,11.4,5.818,5.818,0,0,0-3.2,5.268v1.409a5.809,5.809,0,0,0,4.507,5.762,5.6,5.6,0,0,0,1.377.109,20.246,20.246,0,0,0,5.135,10.114v4.337a1.954,1.954,0,0,0-1.262.569L234.9,93.2l-10.689,4.123a13,13,0,0,0-2.625,1.374,1.963,1.963,0,1,0,2.206,3.247,9.082,9.082,0,0,1,1.832-.959l9.92-3.826,7.585,11.377a5.615,5.615,0,0,0,4.134,2.482c.188.019.375.028.562.028a5.6,5.6,0,0,0,2.763-.731l-1.628,36.921a1.963,1.963,0,0,0,1.875,2.047l.088,0a1.963,1.963,0,0,0,1.96-1.877l1.511-34.27h4.075l1.511,34.27a1.963,1.963,0,0,0,1.96,1.877l.088,0a1.963,1.963,0,0,0,1.875-2.047l-1.628-36.921a5.6,5.6,0,0,0,2.763.731c.186,0,.374-.009.562-.028a5.616,5.616,0,0,0,4.134-2.482l7.585-11.377,9.92,3.826a9.035,9.035,0,0,1,3.531,2.461l-6.787,6.787a12.9,12.9,0,0,0-3.8,9.179v27.91a1.963,1.963,0,1,0,3.926,0v-27.91a9,9,0,0,1,2.652-6.4l5.956-5.956a9.048,9.048,0,0,1,.313,2.743l-1.52,37.447a1.963,1.963,0,0,0,1.882,2.041l.081,0a1.963,1.963,0,0,0,1.96-1.883l1.521-37.448A12.978,12.978,0,0,0,288.652,97.321Zm-48.329-25.4a3.822,3.822,0,0,0-3.975-3.115,1.684,1.684,0,0,1-.457-.031,1.9,1.9,0,0,1-1.369-1.915v-1.41a1.861,1.861,0,0,1,1.385-1.867,1.706,1.706,0,0,1,1.68.643,2.738,2.738,0,0,0,3.762.59,14.251,14.251,0,0,0,3.219-3.147,1.963,1.963,0,0,0-3.15-2.342,10.42,10.42,0,0,1-1.528,1.652,5.615,5.615,0,0,0-2.129-1.137,45.145,45.145,0,0,1-1.4-11.063c0-3.006.927-5.119,2.754-6.278a6.372,6.372,0,0,1,2.934-.941,1.982,1.982,0,0,0,1.354-.542,22.112,22.112,0,0,1,13.137-4.97c7.564-.408,13.4,1.5,16.887,5.523,3.511,4.054,4.68,10.278,3.412,18.068a8.508,8.508,0,0,0-1.674.117l-1.844-4.429a1.965,1.965,0,0,0-2.309-1.145c-.182.048-18.31,4.643-25.91-4.82a1.963,1.963,0,1,0-3.061,2.458c7.762,9.663,23.163,7.561,28.289,6.536l1.426,3.425a3.227,3.227,0,0,0,3.728,1.912,4.237,4.237,0,0,1,1.469-.108,1.852,1.852,0,0,1,1.392,1.842v1.432a1.9,1.9,0,0,1-1.369,1.915,1.664,1.664,0,0,1-.457.031,3.824,3.824,0,0,0-3.975,3.115,16.381,16.381,0,0,1-32.22,0Zm8.708,34.7a1.71,1.71,0,0,1-2.632-.261L238.758,94.9l3.073-3.073,11.731,10.264Zm5.538,2.593.119-2.7,1.745-1.745,1.745,1.745.119,2.7Zm1.865-9.828-10.892-9.531V86.1a20.315,20.315,0,0,0,21.785,0v3.757Zm10.035,6.974a1.71,1.71,0,0,1-2.632.26l-4.531-4.531,11.73-10.264,3.073,3.073Z" transform="translate(-220.729 -32.066)"/></g><g transform="translate(605.997 289.327)"><path class="b" d="M62.25,107.606l-9.585-4.184-5.239-5.239a1.952,1.952,0,0,0-1.262-.569V94.526a20.274,20.274,0,0,0,8.808-13.2,5.64,5.64,0,0,0,1.549-.148,5.842,5.842,0,0,0,4.335-5.723V74.025A5.852,5.852,0,0,0,58.34,69.2a22.2,22.2,0,0,0,.679-5.438A22.886,22.886,0,0,0,48,44.352c-.071-6.787-5.864-12.289-12.978-12.289s-12.908,5.5-12.978,12.289A22.887,22.887,0,0,0,11.019,63.76a22.2,22.2,0,0,0,.675,5.422,5.866,5.866,0,0,0-2.511,4.864v1.41a5.842,5.842,0,0,0,4.335,5.723,5.629,5.629,0,0,0,1.549.148,20.274,20.274,0,0,0,8.808,13.2v3.088a1.951,1.951,0,0,0-1.262.569l-5.239,5.239-9.585,4.184A13.063,13.063,0,0,0,.012,120.054L1.171,147.4a1.963,1.963,0,0,0,1.96,1.88l.085,0a1.963,1.963,0,0,0,1.878-2.044L3.934,119.887a9.038,9.038,0,0,1,1.245-4.944l5.152,6.182a10.912,10.912,0,0,1,2.525,6.973v19.22a1.963,1.963,0,1,0,3.926,0V128.1a14.846,14.846,0,0,0-3.435-9.486L7.869,112.04a8.9,8.9,0,0,1,1.489-.836l8.353-3.646,5.9,9.581a3.8,3.8,0,0,0,5.7.9l3.741-3.192v32.474a1.963,1.963,0,0,0,3.926,0V114.845l3.74,3.192a3.8,3.8,0,0,0,5.7-.9l5.9-9.582L60.68,111.2a8.91,8.91,0,0,1,1.489.836l-5.477,6.573a14.846,14.846,0,0,0-3.435,9.486v19.22a1.963,1.963,0,1,0,3.926,0V128.1a10.914,10.914,0,0,1,2.525-6.973l5.152-6.182a9.038,9.038,0,0,1,1.244,4.944l-1.159,27.349a1.963,1.963,0,0,0,1.878,2.044l.085,0a1.963,1.963,0,0,0,1.96-1.88l1.159-27.348A13.064,13.064,0,0,0,62.25,107.606ZM35.019,35.989a8.994,8.994,0,0,1,8.741,6.274,24.893,24.893,0,0,0-17.483,0A8.993,8.993,0,0,1,35.019,35.989ZM18.909,80.518A3.823,3.823,0,0,0,14.934,77.4a1.7,1.7,0,0,1-.513-.044,1.917,1.917,0,0,1-1.313-1.9v-1.41a1.861,1.861,0,0,1,1.385-1.867,1.706,1.706,0,0,1,1.679.643,2.737,2.737,0,0,0,3.762.591,14.239,14.239,0,0,0,3.177-3.091,1.963,1.963,0,0,0-3.139-2.357,10.407,10.407,0,0,1-1.5,1.61,5.624,5.624,0,0,0-2.962-1.3,18.282,18.282,0,0,1-.568-4.511C14.944,53.2,23.95,44.6,35.019,44.6S55.094,53.2,55.094,63.76a18.275,18.275,0,0,1-.566,4.5A9,9,0,0,0,53,68.514L51.524,67.3a3.768,3.768,0,0,0-2.619-.859c-2.885.17-17.662.561-25.243-8.512a1.963,1.963,0,1,0-3.012,2.517c3.739,4.475,9.223,7.5,16.3,8.993a48.045,48.045,0,0,0,12.121.924l2.3,1.893a1.959,1.959,0,0,0,2.232.182,4.331,4.331,0,0,1,1.934-.258,1.852,1.852,0,0,1,1.392,1.843v1.431a1.917,1.917,0,0,1-1.313,1.9,1.678,1.678,0,0,1-.513.043,3.827,3.827,0,0,0-3.975,3.115,16.381,16.381,0,0,1-32.221,0Zm7.971,34.437-5.9-9.583L24,102.347l8.129,8.129Zm8.139-7.141L27.8,100.594V96.533a20.293,20.293,0,0,0,14.439,0v4.061Zm8.139,7.141-5.249-4.479,8.129-8.129,3.024,3.024Z" transform="translate(0 -32.063)"/></g></g><g class="d" transform="translate(20.198 94.928)"><path class="e" d="M84.656,394.766H79.147a1.963,1.963,0,1,0,0,3.926h5.509a1.963,1.963,0,1,0,0-3.926Z" transform="translate(-77.184 -394.766)"/></g></svg>