<svg xmlns="http://www.w3.org/2000/svg" width="128" height="128.914" viewBox="0 0 128 128.914"><defs><style>.a{fill:#bcc0f4;}.b{fill:#545ee4;}.c{fill:#6874b2;opacity:0.15;}</style></defs><g transform="translate(6)"><g transform="translate(20.187 -0.125)"><path class="a" d="M7.409,80.148H45.939V77.183H7.409a4.446,4.446,0,0,1-4.446-4.446V7.534A4.445,4.445,0,0,1,7.409,3.089h65.2a4.445,4.445,0,0,1,4.446,4.446V41.618h2.964V7.534A7.418,7.418,0,0,0,72.613.125H7.409A7.419,7.419,0,0,0,0,7.534v65.2A7.42,7.42,0,0,0,7.409,80.148Zm0,0"/><path class="b" d="M62.344,62.469h2.963v2.963H62.344Zm0,0" transform="translate(-56.416 -56.416)"/><path class="b" d="M124.676,62.469h2.964v2.963h-2.964Zm0,0" transform="translate(-112.821 -56.416)"/><path class="b" d="M187.016,62.469h2.964v2.963h-2.964Zm0,0" transform="translate(-169.233 -56.416)"/><path class="a" d="M62.344,124.8H130.51v2.964H62.344Zm0,0" transform="translate(-56.416 -112.821)"/><path class="b" d="M77.171,191.707l-3.764,3.764a7.432,7.432,0,1,0,2.1,2.1l3.764-3.764Zm-7.844,14.384a4.445,4.445,0,1,1,0-8.891,4.368,4.368,0,0,1,1.9.444L68.28,200.6l2.095,2.1,2.954-2.95a4.364,4.364,0,0,1,.444,1.9A4.445,4.445,0,0,1,69.327,206.091Zm0,0" transform="translate(-55.99 -173.365)"/><path class="b" d="M264.941,249.484h25.192v2.963H264.941Zm0,0" transform="translate(-239.749 -225.648)"/><path class="a" d="M264.941,311.82h10.373v2.963H264.941Zm0,0" transform="translate(-239.749 -282.057)"/><path class="b" d="M405.2,311.82h20.746v2.963H405.2Zm0,0" transform="translate(-366.674 -282.057)"/><path class="a" d="M561.047,249.484h14.819v2.963H561.047Zm0,0" transform="translate(-507.699 -225.648)"/><path class="b" d="M77.171,378.723l-3.764,3.764a7.432,7.432,0,1,0,2.1,2.1l3.764-3.764Zm-7.844,14.385a4.446,4.446,0,0,1,0-8.892,4.373,4.373,0,0,1,1.9.445l-2.952,2.953,2.095,2.095,2.954-2.951a4.366,4.366,0,0,1,.444,1.9A4.445,4.445,0,0,1,69.327,393.108Zm0,0" transform="translate(-55.99 -342.598)"/><path class="a" d="M264.941,436.492h25.192v2.964H264.941Zm0,0" transform="translate(-239.749 -394.874)"/><path class="b" d="M264.941,498.836h10.373V501.8H264.941Zm0,0" transform="translate(-239.749 -451.29)"/><path class="b" d="M405.2,498.836h11.855V501.8H405.2Zm0,0" transform="translate(-366.674 -451.29)"/><path class="b" d="M561.047,436.492h5.927v2.964h-5.927Zm0,0" transform="translate(-507.699 -394.874)"/><path class="b" d="M77.171,565.738,73.407,569.5a7.432,7.432,0,1,0,2.1,2.1l3.764-3.764Zm-7.844,14.385a4.446,4.446,0,0,1,0-8.891,4.36,4.36,0,0,1,1.9.444l-2.952,2.953,2.095,2.095,2.954-2.951a4.368,4.368,0,0,1,.444,1.9A4.445,4.445,0,0,1,69.327,580.123Zm0,0" transform="translate(-55.99 -511.831)"/><path class="a" d="M264.941,623.512h19.264v2.964H264.941Zm0,0" transform="translate(-239.749 -564.111)"/><path class="a" d="M264.941,685.852h10.373v2.964H264.941Zm0,0" transform="translate(-239.749 -620.524)"/><path class="a" d="M405.2,685.852h5.927v2.964H405.2Zm0,0" transform="translate(-366.674 -620.524)"/><path class="a" d="M520.94,512.121a22.229,22.229,0,1,0-22.229-22.229A22.228,22.228,0,0,0,520.94,512.121Zm0-41.493a19.264,19.264,0,1,1-19.265,19.265A19.265,19.265,0,0,1,520.94,470.628Zm0,0" transform="translate(-451.29 -423.082)"/><path class="b" d="M612.173,593.564l-2.653,1.324,2.964,5.928a1.481,1.481,0,0,0,1.089.8,1.643,1.643,0,0,0,.23.019,1.485,1.485,0,0,0,1.048-.434l17.782-17.783-2.095-2.1-16.33,16.329Zm0,0" transform="translate(-551.563 -525.935)"/></g><ellipse class="c" cx="58" cy="2.5" rx="58" ry="2.5" transform="translate(0 117.914)"/></g></svg>