<svg xmlns="http://www.w3.org/2000/svg" width="128" height="130.464" viewBox="0 0 128 130.464">
  <g id="Component_45_1" data-name="Component 45 – 1" transform="translate(6)">
    <g id="presentation" transform="translate(-23.868)">
      <g id="Group_1140" data-name="Group 1140" transform="translate(48.097 40.25)">
        <g id="Group_1139" data-name="Group 1139">
          <path id="Path_845" data-name="Path 845" d="M112.234,277.472l-3.28-1.312v-1.123a6.414,6.414,0,0,0,2.6-5.125v-3.3a5.11,5.11,0,0,0-5.109-5.11h-.019l-2.6.009a5.115,5.115,0,0,0-4.384,2.523l-2.173-.869V262.04a6.414,6.414,0,0,0,2.6-5.125v-3.3a5.11,5.11,0,0,0-5.109-5.11h-.019l-2.6.009a5.119,5.119,0,0,0-5.092,5.11v3.294a6.414,6.414,0,0,0,2.6,5.125v1.123l-2.164.866a5.139,5.139,0,0,0-.8-1.038,5.075,5.075,0,0,0-3.606-1.49h-.019l-2.6.009a5.115,5.115,0,0,0-4.384,2.523l-2.173-.869V262.04a6.414,6.414,0,0,0,2.6-5.125v-3.3a5.11,5.11,0,0,0-5.11-5.11h-.019l-2.6.009a5.119,5.119,0,0,0-5.092,5.11v3.294a6.414,6.414,0,0,0,2.6,5.125v1.123l-2.164.866a5.136,5.136,0,0,0-.8-1.038A5.075,5.075,0,0,0,59.7,261.5H59.68l-2.6.009a5.12,5.12,0,0,0-5.092,5.11v3.294a6.414,6.414,0,0,0,2.6,5.125v1.123l-3.28,1.312a5.085,5.085,0,0,0-3.212,4.744v7.749a1.215,1.215,0,1,0,2.43,0v-7.75a2.668,2.668,0,0,1,1.685-2.489l3.826-1.53h4.725l3.826,1.53a2.668,2.668,0,0,1,1.685,2.489v7.75a1.215,1.215,0,1,0,2.43,0v-7.75a5.085,5.085,0,0,0-3.212-4.744l-3.28-1.312v-1.123a6.414,6.414,0,0,0,2.6-5.125v-3.3c0-.081,0-.162-.006-.242l2.92-1.168h4.726l2.921,1.168c0,.083-.006.167-.006.251v3.294a6.414,6.414,0,0,0,2.6,5.125v1.123l-3.28,1.312a5.085,5.085,0,0,0-3.212,4.744v7.75a1.215,1.215,0,1,0,2.43,0v-7.75a2.668,2.668,0,0,1,1.685-2.489l3.826-1.53h4.726l3.826,1.53a2.667,2.667,0,0,1,1.685,2.489v7.75a1.215,1.215,0,1,0,2.43,0v-7.75a5.085,5.085,0,0,0-3.212-4.744l-3.28-1.312v-1.123a6.414,6.414,0,0,0,2.6-5.125v-3.3c0-.081,0-.162-.006-.242l2.92-1.168h4.725l2.921,1.168c0,.083-.006.167-.006.251v3.294a6.414,6.414,0,0,0,2.6,5.125v1.123l-3.28,1.312a5.086,5.086,0,0,0-3.212,4.744v7.75a1.215,1.215,0,1,0,2.43,0v-7.75a2.668,2.668,0,0,1,1.685-2.489l3.826-1.53H107.5l3.826,1.53a2.667,2.667,0,0,1,1.685,2.489v7.75a1.215,1.215,0,1,0,2.43,0v-7.75A5.083,5.083,0,0,0,112.234,277.472ZM62.38,269.912a3.935,3.935,0,0,1-1.993,3.423,1.215,1.215,0,0,0-.6,1.05v1.382H57.019v-1.382a1.214,1.214,0,0,0-.6-1.05,3.935,3.935,0,0,1-1.993-3.423v-3.294a2.685,2.685,0,0,1,2.671-2.68l2.6-.009a2.68,2.68,0,0,1,2.69,2.68Zm9.693-9.575a1.215,1.215,0,0,0-.6,1.05v1.382H68.7v-1.382a1.215,1.215,0,0,0-.6-1.05,3.934,3.934,0,0,1-1.993-3.423v-3.294a2.685,2.685,0,0,1,2.671-2.68l2.6-.009h.01a2.68,2.68,0,0,1,2.68,2.68v3.3A3.934,3.934,0,0,1,72.072,260.338Zm11.685,13a1.215,1.215,0,0,0-.6,1.05v1.382H80.39v-1.382a1.214,1.214,0,0,0-.6-1.05,3.935,3.935,0,0,1-1.993-3.423v-3.294a2.685,2.685,0,0,1,2.671-2.68l2.6-.009h.01a2.68,2.68,0,0,1,2.68,2.68v3.3h0A3.935,3.935,0,0,1,83.757,273.336Zm11.685-13a1.215,1.215,0,0,0-.6,1.05v1.382H92.075v-1.382a1.215,1.215,0,0,0-.6-1.05,3.935,3.935,0,0,1-1.993-3.423v-3.294a2.685,2.685,0,0,1,2.671-2.68l2.6-.009h.01a2.68,2.68,0,0,1,2.68,2.68v3.3A3.934,3.934,0,0,1,95.443,260.338Zm11.685,13a1.215,1.215,0,0,0-.6,1.05v1.382h-2.764v-1.382a1.214,1.214,0,0,0-.6-1.05,3.935,3.935,0,0,1-1.993-3.423v-3.294a2.685,2.685,0,0,1,2.671-2.68l2.6-.009a2.68,2.68,0,0,1,2.69,2.68v3.3A3.935,3.935,0,0,1,107.128,273.336Z" transform="translate(-48.097 -248.502)" fill="#bcc0f4"/>
        </g>
      </g>
      <g id="Group_1142" data-name="Group 1142" transform="translate(67.573)">
        <g id="Group_1141" data-name="Group 1141">
          <path id="Path_846" data-name="Path 846" d="M196.56,22.649a1.215,1.215,0,0,0-1.033-.576h-3.979V19.7a3.791,3.791,0,0,0-2.107-3.409l-3.04-1.52a.083.083,0,0,1-.046-.075V12.9c0-.015,0-.029,0-.044a6.4,6.4,0,0,0,2.6-5.15V5.11A5.116,5.116,0,0,0,183.841,0h-2.6a5.116,5.116,0,0,0-5.11,5.11v2.6a6.4,6.4,0,0,0,2.6,5.15c0,.015,0,.029,0,.044v1.794a.083.083,0,0,1-.046.075l-3.04,1.52a3.791,3.791,0,0,0-2.107,3.409v2.374h-3.979a1.215,1.215,0,0,0-1.086,1.758l2.6,5.194a1.215,1.215,0,0,0,1.087.672h1.382v7.874a1.215,1.215,0,1,0,2.43,0V29.7h13.151v7.874a1.215,1.215,0,1,0,2.43,0V29.7h1.382a1.215,1.215,0,0,0,1.087-.672l2.6-5.193A1.214,1.214,0,0,0,196.56,22.649Zm-18-14.942V5.11a2.683,2.683,0,0,1,2.68-2.68h2.6a2.683,2.683,0,0,1,2.68,2.68v2.6a3.979,3.979,0,0,1-7.957,0Zm5.7,8.248-1.66,1.66a.084.084,0,0,1-.118,0l-1.66-1.661a2.509,2.509,0,0,0,.338-1.26v-.731a6.365,6.365,0,0,0,2.764,0v.731A2.51,2.51,0,0,0,184.262,15.955Zm-8.3,3.744h0a1.375,1.375,0,0,1,.764-1.236l2.109-1.055,1.925,1.925a2.516,2.516,0,0,0,3.554,0l1.925-1.925,2.109,1.055a1.375,1.375,0,0,1,.764,1.236v2.374H175.967Zm16.212,7.567H172.907L171.525,24.5h22.036Z" transform="translate(-168.345)" fill="#545ee4"/>
        </g>
      </g>
      <g id="Group_1144" data-name="Group 1144" transform="translate(77.96 32.459)">
        <g id="Group_1143" data-name="Group 1143">
          <path id="Path_847" data-name="Path 847" d="M238.881,200.4h-5.193a1.215,1.215,0,1,0,0,2.43h5.193a1.215,1.215,0,1,0,0-2.43Z" transform="translate(-232.473 -200.403)" fill="#545ee4"/>
        </g>
      </g>
    </g>
    <ellipse id="Ellipse_105" data-name="Ellipse 105" cx="58" cy="2.5" rx="58" ry="2.5" transform="translate(0 119.464)" fill="#6874b2" opacity="0.15"/>
  </g>
</svg>
