<svg xmlns="http://www.w3.org/2000/svg" width="71.834" height="59.177" viewBox="0 0 71.834 59.177"><defs><style>.a{opacity:0.1;}.b{fill:#29f143;}</style></defs><g class="a" transform="translate(143.765 -44.96) rotate(-90)"><path class="b" d="M-48.243-131.2c5.763,9.417,3.5,24.075-3.393,36.906C-58.551-81.466-70.1-70.461-78.8-72.092c-8.677-1.653-13.023-10.678-17.7-22.2-4.676-11.548-9.7-25.641-6.768-33.4,2.914-7.786,12.266-14.549,23.836-15.832C-67.837-144.839-54.028-140.62-48.243-131.2Z" transform="translate(0 0)"/></g><g transform="translate(-26.61 14.537)"><path class="b" d="M77.113,9.346,68.075.309A1.054,1.054,0,0,0,67.33,0H52.079A3.883,3.883,0,0,0,48.2,3.879V32.121A3.883,3.883,0,0,0,52.079,36H73.543a3.883,3.883,0,0,0,3.879-3.879V10.092a1.055,1.055,0,0,0-.309-.746ZM68.384,3.6l5.437,5.437H70.154a1.772,1.772,0,0,1-1.77-1.769Zm5.159,30.29H52.079a1.772,1.772,0,0,1-1.769-1.77V3.879a1.772,1.772,0,0,1,1.769-1.77h14.2V7.268a3.883,3.883,0,0,0,3.879,3.879h5.159V32.121a1.772,1.772,0,0,1-1.769,1.77Z"/><path class="b" d="M137.5,192.8a8.962,8.962,0,1,0,8.963,8.962A8.973,8.973,0,0,0,137.5,192.8Zm0,15.816a6.853,6.853,0,1,1,6.853-6.853A6.861,6.861,0,0,1,137.5,208.616Z" transform="translate(-74.685 -179.244)"/><path class="b" d="M212.018,282.855l-2.449,2.449-.852-.852a1.055,1.055,0,0,0-1.492,1.492l1.6,1.6a1.055,1.055,0,0,0,1.492,0l3.2-3.2a1.055,1.055,0,0,0-1.492-1.492Z" transform="translate(-147.557 -262.679)"/></g></svg>