<svg id="Component_29_2" data-name="Component 29 – 2" xmlns="http://www.w3.org/2000/svg" width="56" height="56" viewBox="0 0 56 56">
  <g id="Ellipse_78" data-name="Ellipse 78" transform="translate(0 0)" fill="#30a953" stroke="#30a953" stroke-width="1" opacity="0.05">
    <circle cx="28" cy="28" r="28" stroke="none"/>
    <circle cx="28" cy="28" r="27.5" fill="none"/>
  </g>
  <g id="Path_794" data-name="Path 794" fill="none">
    <path d="M28,0A28,28,0,1,1,0,28,28,28,0,0,1,28,0Z" stroke="none"/>
    <path d="M 28 1 C 24.35457992553711 1 20.81874084472656 1.713741302490234 17.49068832397461 3.121379852294922 C 14.27566909790039 4.481220245361328 11.38806915283203 6.42816162109375 8.908119201660156 8.908119201660156 C 6.42816162109375 11.38806915283203 4.481220245361328 14.27566909790039 3.121379852294922 17.49068832397461 C 1.713741302490234 20.81874084472656 1 24.35457992553711 1 28 C 1 31.64542007446289 1.713741302490234 35.18125915527344 3.121379852294922 38.50930786132813 C 4.481220245361328 41.72433090209961 6.42816162109375 44.61193084716797 8.908119201660156 47.09188079833984 C 11.38806915283203 49.57183837890625 14.27566909790039 51.51877975463867 17.49068832397461 52.87862014770508 C 20.81874084472656 54.28625869750977 24.35457992553711 55 28 55 C 31.64542007446289 55 35.18125915527344 54.28625869750977 38.50930786132813 52.87862014770508 C 41.72433090209961 51.51877975463867 44.61193084716797 49.57183837890625 47.09188079833984 47.09188079833984 C 49.57183837890625 44.61193084716797 51.51877975463867 41.72433090209961 52.87862014770508 38.50930786132813 C 54.28625869750977 35.18125915527344 55 31.64542007446289 55 28 C 55 24.35457992553711 54.28625869750977 20.81874084472656 52.87862014770508 17.49068832397461 C 51.51877975463867 14.27566909790039 49.57183837890625 11.38806915283203 47.09188079833984 8.908119201660156 C 44.61193084716797 6.42816162109375 41.72433090209961 4.481220245361328 38.50930786132813 3.121379852294922 C 35.18125915527344 1.713741302490234 31.64542007446289 1 28 1 M 28 0 C 43.46397018432617 0 56 12.53602981567383 56 28 C 56 43.46397018432617 43.46397018432617 56 28 56 C 12.53602981567383 56 0 43.46397018432617 0 28 C 0 12.53602981567383 12.53602981567383 0 28 0 Z" stroke="none" fill="#30a953"/>
  </g>
  <g id="sleep" transform="translate(13.262 17.65)">
    <g id="Group_888" data-name="Group 888" transform="translate(0 0)">
      <path id="Path_679" data-name="Path 679" d="M27.612,152.964a1.865,1.865,0,0,0-1.863,1.863v1.227H10.407a3.683,3.683,0,0,0-3.619-3.09H3.794a.583.583,0,0,0-.068,0v-5.1a1.863,1.863,0,0,0-3.726,0V163.71a1.863,1.863,0,1,0,3.726,0V163H25.749v.712a1.863,1.863,0,1,0,3.726,0v-8.884A1.865,1.865,0,0,0,27.612,152.964ZM3.794,154.115H6.788a2.526,2.526,0,0,1,2.446,1.938H3.726v-1.943A.583.583,0,0,0,3.794,154.115Zm-1.219,9.6a.712.712,0,1,1-1.424,0V147.863a.712.712,0,0,1,1.423,0V163.71Zm1.151-1.863v-1.424h8.421a.576.576,0,0,0,0-1.151H3.726V157.2H25.749v2.067H17.328a.576.576,0,1,0,0,1.151h8.421v1.424Zm24.6,1.863a.712.712,0,1,1-1.424,0v-8.884a.712.712,0,1,1,1.424,0Z" transform="translate(0 -146)" fill="#30a953"/>
      <path id="Path_683" data-name="Path 683" d="M246.572,376.543h0a.576.576,0,1,0,.576.576A.575.575,0,0,0,246.571,376.543Z" transform="translate(-231.834 -363.271)" fill="#30a953"/>
    </g>
  </g>
</svg>
