<svg xmlns="http://www.w3.org/2000/svg" width="52.6" height="66.583" viewBox="0 0 52.6 66.583"><defs><style>.a{fill:#bcc0f4;}.b{fill:#545ee4;}</style></defs><g transform="translate(-38.6)"><g transform="translate(38.6 0)"><g transform="translate(0 0)"><path class="a" d="M91.128,14.78c-.072,0-.072-.072-.145-.145s-.072-.145-.145-.217L78.376.435C78.3.362,78.159.29,78.086.217c-.072,0-.072-.072-.145-.072A1.365,1.365,0,0,0,77.362,0H46.787A8.225,8.225,0,0,0,38.6,8.187V58.4a8.225,8.225,0,0,0,8.187,8.187H83.013A8.225,8.225,0,0,0,91.2,58.4V15.287C91.2,15.142,91.128,14.925,91.128,14.78ZM78.738,4.927l8.042,9.056H78.738Zm9.709,53.4a5.443,5.443,0,0,1-5.434,5.506H46.787A5.427,5.427,0,0,1,41.353,58.4V8.115a5.427,5.427,0,0,1,5.434-5.434h29.2V15.287a1.376,1.376,0,0,0,1.377,1.377H88.447Z" transform="translate(-38.6 0)"/><path class="b" d="M86.377,79.553h12.1a1.376,1.376,0,0,0,1.377-1.377A1.332,1.332,0,0,0,98.476,76.8h-12.1a1.377,1.377,0,1,0,0,2.753Z" transform="translate(-76.596 -62.889)"/><path class="a" d="M98.476,275.6h-12.1a1.377,1.377,0,0,0,0,2.753h12.1a1.376,1.376,0,0,0,1.377-1.377A1.425,1.425,0,0,0,98.476,275.6Z" transform="translate(-76.596 -225.681)"/><path class="a" d="M85,128.577a1.376,1.376,0,0,0,1.377,1.377H118.69a1.377,1.377,0,0,0,0-2.753H86.377A1.376,1.376,0,0,0,85,128.577Z" transform="translate(-76.596 -104.16)"/><path class="b" d="M118.69,164.8H86.377a1.377,1.377,0,1,0,0,2.753H118.69a1.376,1.376,0,0,0,1.377-1.377A1.332,1.332,0,0,0,118.69,164.8Z" transform="translate(-76.596 -134.95)"/><path class="a" d="M118.69,202H86.377a1.377,1.377,0,1,0,0,2.753H118.69a1.376,1.376,0,0,0,1.377-1.377A1.332,1.332,0,0,0,118.69,202Z" transform="translate(-76.596 -165.412)"/><path class="b" d="M118.69,239.2H86.377a1.377,1.377,0,1,0,0,2.753H118.69a1.377,1.377,0,0,0,0-2.753Z" transform="translate(-76.596 -195.874)"/></g></g></g></svg>