<svg xmlns="http://www.w3.org/2000/svg" width="118" height="159.546" viewBox="0 0 118 159.546"><defs><style>.a{fill:#6874b2;opacity:0.15;}.b{fill:#bcc0f4;}.c,.e{fill:none;}.c{stroke:#545ee4;stroke-width:3px;}.d{stroke:none;}</style></defs><g transform="translate(3)"><ellipse class="a" cx="53" cy="2.5" rx="53" ry="2.5" transform="translate(3 148.546)"/><path class="b" d="M125.231,38.524A7.98,7.98,0,0,0,117,30.565V26.209a7.966,7.966,0,1,0-.124-15.918A12.024,12.024,0,0,0,105,0H95.891a1.715,1.715,0,0,0,0,3.43H105a8.586,8.586,0,0,1,8.576,8.576v93.079A8.586,8.586,0,0,1,105,113.661H31.8a5.151,5.151,0,0,1-5.146-5.146V106.8h2.23a5.832,5.832,0,1,0,0-11.663h-2.23V78.519h2.23a5.832,5.832,0,1,0,0-11.663h-2.23V50.236h2.23a5.832,5.832,0,1,0,0-11.663h-2.23V21.955h2.23a5.832,5.832,0,1,0,0-11.663h-2.23V8.576A5.151,5.151,0,0,1,31.8,3.43H89.03a1.715,1.715,0,0,0,0-3.43H31.8a8.586,8.586,0,0,0-8.576,8.576v1.715H20.832a5.832,5.832,0,0,0,0,11.663h2.394V38.573H20.832a5.832,5.832,0,0,0,0,11.663h2.394V66.855H20.832a5.832,5.832,0,0,0,0,11.663h2.394V95.137H20.832a5.832,5.832,0,0,0,0,11.663h2.394v1.715a8.586,8.586,0,0,0,8.576,8.576H105a12.024,12.024,0,0,0,11.8-9.787A7.968,7.968,0,1,0,117,91.387V87.031a7.963,7.963,0,1,0,0-15.918V66.757a7.963,7.963,0,1,0,0-15.918V46.483a8.006,8.006,0,0,0,8.226-7.959ZM117,13.722a4.536,4.536,0,1,1,0,9.057ZM117,34a4.536,4.536,0,1,1,0,9.057ZM20.832,18.524a2.4,2.4,0,0,1,0-4.8h8.054a2.4,2.4,0,1,1,0,4.8Zm0,28.282a2.4,2.4,0,1,1,0-4.8h8.054a2.4,2.4,0,1,1,0,4.8Zm0,28.282a2.4,2.4,0,1,1,0-4.8h8.054a2.4,2.4,0,1,1,0,4.8H20.832Zm0,28.282a2.4,2.4,0,0,1,0-4.8h8.054a2.4,2.4,0,1,1,0,4.8ZM121.8,99.346a4.56,4.56,0,0,1-4.8,4.528V94.817A4.56,4.56,0,0,1,121.8,99.346Zm0-20.274A4.56,4.56,0,0,1,117,83.6V74.543A4.564,4.564,0,0,1,121.8,79.072Zm0-20.274a4.56,4.56,0,0,1-4.8,4.529V54.27A4.563,4.563,0,0,1,121.8,58.8ZM92.926,10.291H47.305a3.778,3.778,0,0,0-3.773,3.773v4.117a3.778,3.778,0,0,0,3.773,3.773H92.926A3.778,3.778,0,0,0,96.7,18.181V14.065A3.778,3.778,0,0,0,92.926,10.291Zm.343,7.89a.343.343,0,0,1-.343.343H47.305a.343.343,0,0,1-.343-.343V14.065a.343.343,0,0,1,.343-.343H92.926a.343.343,0,0,1,.343.343Zm-7.4,77.977A52.128,52.128,0,0,1,64.552,85.217a1.715,1.715,0,0,0-2.178,2.65,55.554,55.554,0,0,0,22.749,11.64A20.6,20.6,0,0,0,89.61,100a20.837,20.837,0,0,0,17.667-9.88,5.616,5.616,0,0,0-.812-6.943l-9.54-9.54a5.636,5.636,0,0,0-8.783,1.028l-2.4,3.9a2.187,2.187,0,0,1-2.7.889A39.886,39.886,0,0,1,61.311,57.737a2.194,2.194,0,0,1,.883-2.716l3.9-2.4a5.637,5.637,0,0,0,1.028-8.783l-9.542-9.542a5.617,5.617,0,0,0-6.943-.812,20.826,20.826,0,0,0-2.427,1.752c-.026.02-.052.042-.078.064A20.741,20.741,0,0,0,41.25,55.633c2.138,9.6,7.875,19.444,16.153,27.722a1.715,1.715,0,0,0,2.426-2.426C52.006,73.106,46.6,63.858,44.6,54.887a17.3,17.3,0,0,1,4.608-15.922L61.6,51.358l-1.2.743a5.611,5.611,0,0,0-2.253,6.947A43.316,43.316,0,0,0,81.727,82.626a5.6,5.6,0,0,0,6.93-2.259L89.4,79.16l12.391,12.391a17.3,17.3,0,0,1-15.922,4.608ZM51.861,36.77q.283-.19.574-.37a2.2,2.2,0,0,1,2.717.318l9.542,9.542a2.2,2.2,0,0,1-.118,3.226ZM91.273,76.182a2.2,2.2,0,0,1,3.226-.118l9.54,9.54a2.2,2.2,0,0,1,.323,2.709l-.006.009q-.18.292-.37.574Z" transform="translate(-15)"/><g class="c" transform="translate(29 10.546)"><rect class="d" width="52" height="11" rx="3"/><rect class="e" x="1.5" y="1.5" width="49" height="8" rx="1.5"/></g><g class="c" transform="translate(0 10.546)"><rect class="d" width="19" height="11" rx="5"/><rect class="e" x="1.5" y="1.5" width="16" height="8" rx="3.5"/></g><g class="c" transform="translate(0 38.546)"><rect class="d" width="19" height="11" rx="5"/><rect class="e" x="1.5" y="1.5" width="16" height="8" rx="3.5"/></g><g class="c" transform="translate(0 67.546)"><rect class="d" width="19" height="11" rx="5"/><rect class="e" x="1.5" y="1.5" width="16" height="8" rx="3.5"/></g><g class="c" transform="translate(0 95.546)"><rect class="d" width="19" height="11" rx="5"/><rect class="e" x="1.5" y="1.5" width="16" height="8" rx="3.5"/></g></g></svg>