<svg xmlns="http://www.w3.org/2000/svg" width="11.521" height="15.106" viewBox="0 0 11.521 15.106"><defs><style>.a{fill:#fe6969;}</style></defs><path class="a" d="M73.764,1.45a.777.777,0,0,1,.762-.823h3.132a.777.777,0,0,1,.762.823v.9h.564v-.9A1.375,1.375,0,0,0,77.658,0H74.526A1.375,1.375,0,0,0,73.2,1.45v.9h.564Zm0,0" transform="translate(-70.331)"/><path class="a" d="M29.387,135.087h6.936a1.3,1.3,0,0,0,1.188-1.41V124H28.2v9.677a1.3,1.3,0,0,0,1.188,1.41Zm5.337-9.591a.294.294,0,1,1,.587,0v7.4a.294.294,0,1,1-.587,0Zm-2.163,0a.294.294,0,1,1,.587,0v7.4a.294.294,0,1,1-.587,0Zm-2.163,0a.294.294,0,1,1,.587,0v7.4a.294.294,0,1,1-.587,0Zm0,0" transform="translate(-27.094 -119.981)"/><path class="a" d="M.742,69.567H10.778a.785.785,0,0,0,0-1.567H.742a.785.785,0,0,0,0,1.567Zm0,0" transform="translate(0 -65.491)"/></svg>