<svg xmlns="http://www.w3.org/2000/svg" width="128" height="130.749" viewBox="0 0 128 130.749"><defs><style>.a{fill:#bcc0f4;}.b,.f{fill:#545ee4;}.c{fill:#6874b2;opacity:0.15;}.d{fill:#fff;stroke:#bcc0f4;}.d,.e,.f{stroke-width:3px;}.e,.h{fill:none;}.e,.f{stroke:#545ee4;stroke-linecap:round;}.g{stroke:none;}</style></defs><g transform="translate(6)"><g transform="translate(-15.368 0)"><g transform="translate(39.597)"><g transform="translate(0)"><path class="a" d="M98.187,0H57.5a9.221,9.221,0,0,0-9.2,9.114,9.2,9.2,0,0,0-8.707,9.2V74.7a9.238,9.238,0,0,0,9.2,9.2H89.48a9.221,9.221,0,0,0,9.2-9.114,9.2,9.2,0,0,0,8.707-9.2V9.277A9.152,9.152,0,0,0,98.187,0ZM95.665,74.7a6.182,6.182,0,0,1-6.185,6.185H48.792a6.1,6.1,0,0,1-6.1-6.1V18.309a6.1,6.1,0,0,1,6.1-6.1H81.668V26.366a1.545,1.545,0,0,0,1.546,1.546h12.45ZM84.76,24.819V14.648l9.033,10.172Zm14,46.954V26.366c0-.163-.081-.407-.081-.57a.284.284,0,0,0-.081-.163c-.081-.081-.081-.163-.163-.244L84.353,9.6a1.779,1.779,0,0,0-.407-.244c-.081,0-.081-.081-.163-.081a1.533,1.533,0,0,0-.651-.163H51.4a6.131,6.131,0,0,1,6.1-6.022H98.187a6.1,6.1,0,0,1,6.1,6.1V65.67h.081A6.181,6.181,0,0,1,98.757,71.773Z" transform="translate(-39.597)"/><path class="b" d="M87.943,125.092h13.59a1.546,1.546,0,1,0,0-3.092H87.943a1.545,1.545,0,0,0-1.546,1.546A1.5,1.5,0,0,0,87.943,125.092Z" transform="translate(-76.876 -97.181)"/><path class="a" d="M101.451,320.8H87.943a1.546,1.546,0,0,0,0,3.092h13.59a1.545,1.545,0,0,0,1.546-1.546A1.676,1.676,0,0,0,101.451,320.8Z" transform="translate(-76.876 -255.537)"/><path class="a" d="M86.4,173.946a1.545,1.545,0,0,0,1.546,1.546h36.293a1.545,1.545,0,0,0,1.546-1.546,1.6,1.6,0,0,0-1.546-1.546H87.943A1.545,1.545,0,0,0,86.4,173.946Z" transform="translate(-76.876 -137.327)"/><path class="b" d="M124.236,209.6H87.943a1.546,1.546,0,0,0,0,3.092h36.293a1.545,1.545,0,0,0,1.546-1.546A1.6,1.6,0,0,0,124.236,209.6Z" transform="translate(-76.876 -166.959)"/><path class="a" d="M124.236,247.2H87.943a1.546,1.546,0,1,0,0,3.092h36.293a1.546,1.546,0,1,0,0-3.092Z" transform="translate(-76.876 -196.91)"/><path class="b" d="M124.236,284.4H87.943a1.546,1.546,0,1,0,0,3.092h36.293a1.546,1.546,0,1,0,0-3.092Z" transform="translate(-76.876 -226.542)"/></g></g></g><ellipse class="c" cx="58" cy="2.5" rx="58" ry="2.5" transform="translate(0 119.749)"/><g transform="translate(-633 -217.251)"><g class="d" transform="translate(699 278)"><circle class="g" cx="17" cy="17" r="17"/><circle class="h" cx="17" cy="17" r="15.5"/></g><path class="e" d="M-6287,4869.667v15" transform="translate(7003 -4582)"/><path class="f" d="M-6287,4869.667v15" transform="translate(5593.167 6582.167) rotate(90)"/></g></g></svg>