<svg xmlns="http://www.w3.org/2000/svg" width="9.942" height="7.456" viewBox="0 0 9.942 7.456">
  <path id="email" d="M9.01,59.882H.932A.933.933,0,0,0,0,60.814v5.592a.933.933,0,0,0,.932.932H9.01a.933.933,0,0,0,.932-.932V60.814A.933.933,0,0,0,9.01,59.882Zm0,.621a.309.309,0,0,1,.119.024l-4.158,3.6-4.158-3.6A.309.309,0,0,1,.932,60.5Zm0,6.214H.932a.311.311,0,0,1-.311-.311V61.184l4.146,3.593a.311.311,0,0,0,.407,0l4.146-3.593v5.222A.311.311,0,0,1,9.01,66.717Z" transform="translate(0 -59.882)" fill="#545ee4"/>
</svg>
