<svg xmlns="http://www.w3.org/2000/svg" width="20.274" height="15.206" viewBox="0 0 20.274 15.206"><defs><style>.a{fill:#545ee4;}</style></defs><path class="a" d="M18.374,59.882H1.9a1.9,1.9,0,0,0-1.9,1.9v11.4a1.9,1.9,0,0,0,1.9,1.9H18.374a1.9,1.9,0,0,0,1.9-1.9v-11.4A1.9,1.9,0,0,0,18.374,59.882Zm0,1.267a.63.63,0,0,1,.243.049l-8.479,7.349L1.658,61.2a.631.631,0,0,1,.243-.049Zm0,12.671H1.9a.634.634,0,0,1-.634-.634V62.537l8.455,7.328a.635.635,0,0,0,.83,0l8.455-7.328v10.65A.634.634,0,0,1,18.374,73.821Z" transform="translate(0 -59.882)"/></svg>