<svg xmlns="http://www.w3.org/2000/svg" width="20" height="20" viewBox="0 0 20 20"><defs><style>.a{fill:#545ee4;}</style></defs><path class="a" d="M19.414,6.641H16.758V.586A.586.586,0,0,0,16.172,0H3.828a.586.586,0,0,0-.586.586V5.694a1.768,1.768,0,0,0-.8.947H.586A.586.586,0,0,0,0,7.227V18.242a.586.586,0,0,0,.586.586H2.444A1.761,1.761,0,0,0,4.1,20H7.227a1.761,1.761,0,0,0,1.657-1.172h10.53A.586.586,0,0,0,20,18.242V7.227a.586.586,0,0,0-.586-.586ZM15.586,1.172V6.641h-6.7A1.761,1.761,0,0,0,7.227,5.469H4.414v-4.3ZM1.172,7.813H2.344v9.844H1.172ZM7.227,18.828H4.1a.587.587,0,0,1-.586-.586V7.227A.587.587,0,0,1,4.1,6.641H7.227a.587.587,0,0,1,.586.586V18.242A.587.587,0,0,1,7.227,18.828Zm11.6-1.172H8.984V7.813h9.844Zm0,0"/><path class="a" d="M402.172,251.586a.586.586,0,1,1-.586-.586A.586.586,0,0,1,402.172,251.586Zm0,0" transform="translate(-385.336 -241.195)"/><path class="a" d="M342.172,251.586a.586.586,0,1,1-.586-.586A.586.586,0,0,1,342.172,251.586Zm0,0" transform="translate(-327.68 -241.195)"/><path class="a" d="M282.172,251.586a.586.586,0,1,1-.586-.586A.586.586,0,0,1,282.172,251.586Zm0,0" transform="translate(-270.023 -241.195)"/><path class="a" d="M402.172,311.586a.586.586,0,1,1-.586-.586A.586.586,0,0,1,402.172,311.586Zm0,0" transform="translate(-385.336 -298.852)"/><path class="a" d="M342.172,311.586a.586.586,0,1,1-.586-.586A.586.586,0,0,1,342.172,311.586Zm0,0" transform="translate(-327.68 -298.852)"/><path class="a" d="M282.172,311.586a.586.586,0,1,1-.586-.586A.586.586,0,0,1,282.172,311.586Zm0,0" transform="translate(-270.023 -298.852)"/><path class="a" d="M402.172,371.586a.586.586,0,1,1-.586-.586A.586.586,0,0,1,402.172,371.586Zm0,0" transform="translate(-385.336 -356.508)"/><path class="a" d="M342.172,371.586a.586.586,0,1,1-.586-.586A.586.586,0,0,1,342.172,371.586Zm0,0" transform="translate(-327.68 -356.508)"/><path class="a" d="M282.172,371.586a.586.586,0,1,1-.586-.586A.586.586,0,0,1,282.172,371.586Zm0,0" transform="translate(-270.023 -356.508)"/></svg>