<svg id="Component_32_1" data-name="Component 32 – 1" xmlns="http://www.w3.org/2000/svg" width="56" height="56" viewBox="0 0 56 56">
  <g id="Ellipse_77" data-name="Ellipse 77" fill="#545ee4" stroke="#707070" stroke-width="1" opacity="0.05">
    <circle cx="28" cy="28" r="28" stroke="none"/>
    <circle cx="28" cy="28" r="27.5" fill="none"/>
  </g>
  <g id="Ellipse_79" data-name="Ellipse 79" fill="none" stroke="#545ee4" stroke-width="1">
    <circle cx="28" cy="28" r="28" stroke="none"/>
    <circle cx="28" cy="28" r="27.5" fill="none"/>
  </g>
  <g id="sex-symbol" transform="translate(14.736 17.276)">
    <g id="Group_891" data-name="Group 891" transform="translate(15.589 16.622)">
      <g id="Group_890" data-name="Group 890" transform="translate(0 0)">
        <path id="Path_690" data-name="Path 690" d="M285.575,330.443a.548.548,0,1,0,.547.549v-.005A.545.545,0,0,0,285.575,330.443Z" transform="translate(-285.028 -330.443)" fill="#545ee4"/>
      </g>
    </g>
    <g id="Group_893" data-name="Group 893" transform="translate(0 0)">
      <g id="Group_892" data-name="Group 892" transform="translate(0 0)">
        <path id="Path_691" data-name="Path 691" d="M27.455,26.521H21a.547.547,0,0,0-.547.547v2.167a.547.547,0,0,0,.547.547H22.12l-1.462,1.462a8.245,8.245,0,0,0-4.522-1.337,8.411,8.411,0,0,0-1.114.076A8.311,8.311,0,1,0,6.454,42.99v3.272H4.813a.547.547,0,0,0-.547.547v2.406a.547.547,0,0,0,.547.547H6.454v1.313A.547.547,0,0,0,7,51.622H9.626a.547.547,0,0,0,.547-.547V49.763h1.641a.547.547,0,0,0,.547-.547V46.809a.547.547,0,0,0-.547-.547H10.173V44.013a8.314,8.314,0,0,0,13.075-10.1l1.493-1.493v1.1a.547.547,0,0,0,.547.547h2.168A.547.547,0,0,0,28,33.52V27.068A.547.547,0,0,0,27.455,26.521ZM9.534,42a.547.547,0,0,0-.455.539v4.268a.547.547,0,0,0,.547.547h1.641v1.313H9.626a.547.547,0,0,0-.547.547v1.313H7.547V49.216A.547.547,0,0,0,7,48.669H5.36V47.356H7a.547.547,0,0,0,.547-.547V42.542A.547.547,0,0,0,7.092,42a7.219,7.219,0,1,1,2.442,0Zm17.374-9.029H25.834V31.1a.547.547,0,0,0-.934-.387l-2.738,2.738a.547.547,0,0,0-.065.7,7.219,7.219,0,0,1-11.48,8.726,8.287,8.287,0,0,0,1.213-.456,6.006,6.006,0,0,0,2.576,1.563.547.547,0,0,0,.314-1.048,4.908,4.908,0,0,1-1.891-1.07,8.314,8.314,0,0,0,3.646-8.556,4.923,4.923,0,0,1,1.076,9.626.547.547,0,1,0,.314,1.048,6.063,6.063,0,0,0,3.073-2.14,6.016,6.016,0,0,0-4.756-9.64,8.267,8.267,0,0,0-.512-1.185c.155-.01.311-.016.466-.016A7.163,7.163,0,0,1,20.4,32.395a.547.547,0,0,0,.71-.054l2.718-2.718a.547.547,0,0,0-.387-.934H21.549V27.615h5.36Z" transform="translate(0 -26.521)" fill="#545ee4"/>
      </g>
    </g>
    <g id="Group_895" data-name="Group 895" transform="translate(3.891 3.957)">
      <g id="Group_894" data-name="Group 894" transform="translate(0 0)">
        <path id="Path_692" data-name="Path 692" d="M72.076,99.018a.547.547,0,0,0-.77.008l-.006.006a.547.547,0,0,0,.782.765l.006-.006A.547.547,0,0,0,72.076,99.018Z" transform="translate(-71.146 -98.864)" fill="#545ee4"/>
      </g>
    </g>
    <g id="Group_897" data-name="Group 897" transform="translate(2.297 2.349)">
      <g id="Group_896" data-name="Group 896" transform="translate(0 0)">
        <path id="Path_693" data-name="Path 693" d="M48.016,69.479a5.964,5.964,0,0,0-2.563.572.547.547,0,0,0,.466.989,4.922,4.922,0,0,1,5.4.81,8.317,8.317,0,0,0-3.645,8.555,4.925,4.925,0,0,1-4.164-6.9.547.547,0,1,0-1-.442,6.017,6.017,0,1,0,5.5-3.586Zm.766,10.879a7.224,7.224,0,0,1,3.271-7.675,4.917,4.917,0,0,1,.564,1.064,6.02,6.02,0,0,0-2.674,6.278A4.881,4.881,0,0,1,48.782,80.358Zm2.172-.916A4.926,4.926,0,0,1,52.9,74.879a4.921,4.921,0,0,1-1.945,4.562Z" transform="translate(-42 -69.479)" fill="#545ee4"/>
      </g>
    </g>
  </g>
</svg>
