<svg width="47" height="54" viewBox="0 0 47 54" fill="none" xmlns="http://www.w3.org/2000/svg">
<path d="M35.2518 20.4258C35.2518 19.4926 34.4779 18.7187 33.5447 18.7187H28.4234V13.5975C28.4234 12.6643 27.6495 11.8904 26.7163 11.8904H19.888C18.9548 11.8904 18.1809 12.6643 18.1809 13.5975V18.7187H13.0596C12.1264 18.7187 11.3525 19.4926 11.3525 20.4258V27.2542C11.3525 28.1874 12.1264 28.9613 13.0596 28.9613H18.1809V34.0825C18.1809 35.0157 18.9548 35.7896 19.888 35.7896H26.7163C27.6495 35.7896 28.4234 35.0157 28.4234 34.0825V28.9613H33.5447C34.4779 28.9613 35.2518 28.1874 35.2518 27.2542V20.4258Z" stroke="#A28CBF" stroke-width="2" stroke-linecap="round" stroke-linejoin="round"/>
<path d="M1.1087 8.86292V26.1842C1.1087 37.4054 8.00533 47.4431 18.4755 51.4718L20.8426 52.3823C22.4131 52.9968 24.1658 52.9968 25.7363 52.3823L28.1034 51.4718C38.5736 47.4431 45.4702 37.3827 45.4702 26.1842V8.86292C45.4702 7.52001 44.6963 6.31367 43.49 5.7674C37.1169 2.99054 30.2202 1.57935 23.2781 1.64763C16.3132 1.57935 9.43928 2.99054 3.06616 5.7674C1.85982 6.31367 1.08594 7.54277 1.08594 8.86292H1.1087Z" stroke="#A28CBF" stroke-width="2" stroke-linecap="round" stroke-linejoin="round"/>
</svg>
