<svg width="53" height="53" viewBox="0 0 53 53" fill="none" xmlns="http://www.w3.org/2000/svg">
<path d="M1 11.125C1 9.2575 2.5075 7.75 4.375 7.75H48.25C50.1175 7.75 51.625 9.2575 51.625 11.125V48.25C51.625 50.1175 50.1175 51.625 48.25 51.625H4.375C2.5075 51.625 1 50.1175 1 48.25V11.125Z" stroke="#A28CBF" stroke-width="2" stroke-linecap="round" stroke-linejoin="round"/>
<path d="M1 26H51.625" stroke="#A28CBF" stroke-width="2" stroke-linecap="round" stroke-linejoin="round"/>
<path d="M14.5 12.8125V1" stroke="#A28CBF" stroke-width="2" stroke-linecap="round" stroke-linejoin="round"/>
<path d="M38.125 12.8125V1" stroke="#A28CBF" stroke-width="2" stroke-linecap="round" stroke-linejoin="round"/>
<path d="M11.9575 29.6875C11.485 29.6875 11.1025 30.07 11.1025 30.5425C11.1025 31.015 11.485 31.3975 11.9575 31.3975C12.43 31.3975 12.8125 31.015 12.8125 30.5425C12.8125 30.07 12.43 29.6875 11.9575 29.6875Z" fill="#A28CBF" stroke="#A28CBF" stroke-width="2" stroke-linecap="round" stroke-linejoin="round"/>
<path d="M11.9575 41.5C11.485 41.5 11.1025 41.8825 11.1025 42.355C11.1025 42.8275 11.485 43.21 11.9575 43.21C12.43 43.21 12.8125 42.8275 12.8125 42.355C12.8125 41.8825 12.43 41.5 11.9575 41.5Z" fill="#A28CBF" stroke="#A28CBF" stroke-width="2" stroke-linecap="round" stroke-linejoin="round"/>
<path d="M26.312 29.6875C25.8395 29.6875 25.457 30.07 25.457 30.5425C25.457 31.015 25.8395 31.3975 26.312 31.3975C26.7845 31.3975 27.167 31.015 27.167 30.5425C27.167 30.07 26.7845 29.6875 26.312 29.6875Z" fill="#A28CBF" stroke="#A28CBF" stroke-width="2" stroke-linecap="round" stroke-linejoin="round"/>
<path d="M26.312 41.5C25.8395 41.5 25.457 41.8825 25.457 42.355C25.457 42.8275 25.8395 43.21 26.312 43.21C26.7845 43.21 27.167 42.8275 27.167 42.355C27.167 41.8825 26.7845 41.5 26.312 41.5Z" fill="#A28CBF" stroke="#A28CBF" stroke-width="2" stroke-linecap="round" stroke-linejoin="round"/>
<path d="M40.6675 29.6875C40.195 29.6875 39.8125 30.07 39.8125 30.5425C39.8125 31.015 40.195 31.3975 40.6675 31.3975C41.14 31.3975 41.5225 31.015 41.5225 30.5425C41.5225 30.07 41.14 29.6875 40.6675 29.6875Z" fill="#A28CBF" stroke="#A28CBF" stroke-width="2" stroke-linecap="round" stroke-linejoin="round"/>
<path d="M40.6675 41.5C40.195 41.5 39.8125 41.8825 39.8125 42.355C39.8125 42.8275 40.195 43.21 40.6675 43.21C41.14 43.21 41.5225 42.8275 41.5225 42.355C41.5225 41.8825 41.14 41.5 40.6675 41.5Z" fill="#A28CBF" stroke="#A28CBF" stroke-width="2" stroke-linecap="round" stroke-linejoin="round"/>
</svg>
