<svg width="54" height="54" viewBox="0 0 54 54" fill="none" xmlns="http://www.w3.org/2000/svg">
<path d="M25.3125 34.3125C25.3125 33.075 26.325 32.0625 27.5625 32.0625H50.0625C51.3 32.0625 52.3125 33.075 52.3125 34.3125V50.0625C52.3125 51.3 51.3 52.3125 50.0625 52.3125H27.5625C26.325 52.3125 25.3125 51.3 25.3125 50.0625V34.3125Z" stroke="#A28CBF" stroke-width="2" stroke-linecap="round" stroke-linejoin="round"/>
<path d="M36 25.3125H41.625C42.8625 25.3125 43.875 26.325 43.875 27.5625V32.0625H33.75V27.5625C33.75 26.325 34.7625 25.3125 36 25.3125Z" stroke="#A28CBF" stroke-width="2" stroke-linecap="round" stroke-linejoin="round"/>
<path d="M38.8125 38.8125V45.5625" stroke="#A28CBF" stroke-width="2" stroke-linecap="round" stroke-linejoin="round"/>
<path d="M35.4375 42.1875H42.1875" stroke="#A28CBF" stroke-width="2" stroke-linecap="round" stroke-linejoin="round"/>
<path d="M1.6875 38.8126C1.6875 33.7051 4.2525 28.9576 8.505 26.1451C12.7575 23.3326 18.135 22.8376 22.8375 24.8401" stroke="#A28CBF" stroke-width="2" stroke-linecap="round" stroke-linejoin="round"/>
<path d="M8.86523 6.25488C11.7677 9.26988 15.7727 10.9574 19.9577 10.9574C22.0502 10.9574 24.1427 10.5299 26.0552 9.69738" stroke="#A28CBF" stroke-width="2" stroke-linecap="round" stroke-linejoin="round"/>
<path d="M16.8755 20.25C22.0055 20.25 26.1455 16.0875 26.1455 10.98C26.1455 5.8725 22.0055 1.6875 16.8755 1.6875C11.7455 1.6875 7.60547 5.85 7.60547 10.98C7.60547 16.11 11.768 20.25 16.8755 20.25Z" stroke="#A28CBF" stroke-width="2" stroke-linecap="round" stroke-linejoin="round"/>
<path d="M16.875 23.625V38.8125" stroke="#A28CBF" stroke-width="2" stroke-linecap="round" stroke-linejoin="round"/>
</svg>
