<svg xmlns="http://www.w3.org/2000/svg" width="25.092" height="20" viewBox="0 0 25.092 20"><defs><style>.a{fill:#fff;}</style></defs><g transform="translate(6.78 6.999)"><path class="a" d="M154.215,201.322l-5.789,5.789,1.512,1.512,3.208-3.208v8.907h2.138v-8.907l3.208,3.208L160,207.111Z" transform="translate(-148.426 -201.322)"/></g><g transform="translate(0 0)"><path class="a" d="M20.393,43.563a7.942,7.942,0,0,0-13.246-5.6,7.817,7.817,0,0,0-2.441,4.249,5.964,5.964,0,0,0-3.115,1.76A5.861,5.861,0,0,0,0,47.993,5.946,5.946,0,0,0,5.967,53.9H6.994V51.966H5.962a3.971,3.971,0,0,1-.32-7.932l.812-.064.083-.8a5.971,5.971,0,0,1,11.9.612v1.7h1.418a3.246,3.246,0,1,1,0,6.492H18.146V53.9h1.712a5.182,5.182,0,0,0,.535-10.341Z" transform="translate(0 -35.93)"/></g></svg>