<svg xmlns="http://www.w3.org/2000/svg" width="128.195" height="139.536" viewBox="0 0 128.195 139.536"><defs><style>.a{opacity:0.25;}.b{fill:#5b74ff;}</style></defs><g class="a" transform="translate(-0.433 41.503) rotate(-30)"><path class="b" d="M235.158,26.763,208.881.486A1.681,1.681,0,0,0,207.705,0h-9.434a1.662,1.662,0,1,0,0,3.325h7.772V24.152a5.455,5.455,0,0,0,5.449,5.45H232.32V59.047a1.662,1.662,0,1,0,3.325,0V27.939a1.668,1.668,0,0,0-.487-1.176Zm-25.79-2.611V5.676l20.6,20.6H211.492a2.127,2.127,0,0,1-2.124-2.125Zm0,0" transform="translate(-152.64)"/><path class="b" d="M74.912,147.609a3.606,3.606,0,0,0-3.6-3.6H66.563a3.606,3.606,0,0,0-3.6,3.6v4.748a3.606,3.606,0,0,0,3.6,3.6H71.31a3.606,3.606,0,0,0,3.6-3.6Zm-3.325,4.748a.284.284,0,0,1-.277.277H66.563a.284.284,0,0,1-.276-.277v-4.748a.283.283,0,0,1,.276-.276H71.31a.284.284,0,0,1,.277.276Zm0,0" transform="translate(-48.616 -112.088)"/><path class="b" d="M74.912,229.512a3.606,3.606,0,0,0-3.6-3.6H66.563a3.606,3.606,0,0,0-3.6,3.6v4.747a3.606,3.606,0,0,0,3.6,3.6H71.31a3.606,3.606,0,0,0,3.6-3.6Zm-3.325,4.747a.284.284,0,0,1-.277.276H66.563a.283.283,0,0,1-.276-.276v-4.747a.284.284,0,0,1,.276-.277H71.31a.284.284,0,0,1,.277.277Zm0,0" transform="translate(-48.616 -175.836)"/><path class="b" d="M71.31,389.715H66.563a3.606,3.606,0,0,0-3.6,3.6v4.748a3.606,3.606,0,0,0,3.6,3.6H71.31a3.606,3.606,0,0,0,3.6-3.6v-4.748A3.606,3.606,0,0,0,71.31,389.715Zm.277,8.349a.284.284,0,0,1-.277.276H66.563a.283.283,0,0,1-.276-.276v-4.748a.283.283,0,0,1,.276-.276H71.31a.284.284,0,0,1,.277.276Zm0,0" transform="translate(-48.616 -303.332)"/><path class="b" d="M135.656,165.127a1.662,1.662,0,0,0,1.662,1.663h33.04a1.663,1.663,0,0,0,0-3.326h-33.04A1.662,1.662,0,0,0,135.656,165.127Zm0,0" transform="translate(-105.198 -127.232)"/><path class="b" d="M137.318,197.813H162.3a1.662,1.662,0,0,0,0-3.325H137.318a1.662,1.662,0,1,0,0,3.325Zm0,0" transform="translate(-105.198 -151.379)"/><path class="b" d="M170.358,245.367h-33.04a1.662,1.662,0,1,0,0,3.325h33.04a1.662,1.662,0,1,0,0-3.325Zm0,0" transform="translate(-105.198 -190.98)"/><path class="b" d="M137.318,279.716H162.3a1.662,1.662,0,0,0,0-3.325H137.318a1.662,1.662,0,1,0,0,3.325Zm0,0" transform="translate(-105.198 -215.127)"/><path class="b" d="M74.912,311.415a3.606,3.606,0,0,0-3.6-3.6H66.563a3.606,3.606,0,0,0-3.6,3.6v4.747a3.606,3.606,0,0,0,3.6,3.6H71.31a3.606,3.606,0,0,0,3.6-3.6Zm-3.325,4.747a.284.284,0,0,1-.277.276H66.563a.283.283,0,0,1-.276-.276v-4.747a.284.284,0,0,1,.276-.277H71.31a.284.284,0,0,1,.277.277Zm0,0" transform="translate(-48.616 -239.585)"/><path class="b" d="M170.358,327.27h-33.04a1.662,1.662,0,1,0,0,3.325h33.04a1.662,1.662,0,1,0,0-3.325Zm0,0" transform="translate(-105.198 -254.729)"/><path class="b" d="M137.318,361.618H162.3a1.662,1.662,0,0,0,0-3.325H137.318a1.662,1.662,0,1,0,0,3.325Zm0,0" transform="translate(-105.198 -278.875)"/><path class="b" d="M172.021,410.834a1.663,1.663,0,0,0-1.662-1.662h-33.04a1.662,1.662,0,1,0,0,3.325h33.04A1.662,1.662,0,0,0,172.021,410.834Zm0,0" transform="translate(-105.198 -318.477)"/><path class="b" d="M137.318,440.2a1.662,1.662,0,1,0,0,3.325H162.3a1.662,1.662,0,0,0,0-3.325Zm0,0" transform="translate(-105.198 -342.623)"/><path class="b" d="M37.873,0H5.95A5.455,5.455,0,0,0,.5,5.45V108.038a5.456,5.456,0,0,0,5.45,5.45H77.555a5.456,5.456,0,0,0,5.45-5.45V66.805a1.662,1.662,0,1,0-3.325,0v41.233a2.127,2.127,0,0,1-2.125,2.125H5.95a2.127,2.127,0,0,1-2.125-2.125V5.45A2.127,2.127,0,0,1,5.95,3.325H37.873a1.662,1.662,0,0,0,0-3.325Zm0,0" transform="translate(0 0)"/></g></svg>