<svg xmlns="http://www.w3.org/2000/svg" width="90.962" height="85.518" viewBox="0 0 90.962 85.518"><defs><style>.a{opacity:0.1;}.b{fill:#ffa70e;}</style></defs><g class="a" transform="matrix(-0.454, 0.891, -0.891, -0.454, -84.503, 60.31)"><path class="b" d="M-48.243-131.2c5.763,9.417,3.5,24.075-3.393,36.906C-58.551-81.466-70.1-70.461-78.8-72.092-87.476-73.745-93.326-88.077-98-99.6c-4.676-11.548-8.2-20.334-5.263-28.1,2.914-7.786,12.266-14.549,23.836-15.832C-67.837-144.839-54.028-140.62-48.243-131.2Z" transform="translate(0 0)"/></g><g transform="matrix(0.891, -0.454, 0.454, 0.891, 35.299, 36.272)"><path class="b" d="M140.627,304.254a.627.627,0,1,0-.627-.627A.627.627,0,0,0,140.627,304.254Zm0,0" transform="translate(-131.222 -284.004)"/><path class="b" d="M12.833,15.5a9.869,9.869,0,0,0,3.483-3.6,9.707,9.707,0,0,0,1.239-4.734V3.654a1.884,1.884,0,0,0,1.254-1.773V.627A.627.627,0,0,0,18.182,0H.627A.627.627,0,0,0,0,.627V1.881A1.884,1.884,0,0,0,1.254,3.654V7.168A9.707,9.707,0,0,0,2.493,11.9a9.867,9.867,0,0,0,3.483,3.6.657.657,0,0,1,0,1.1,9.867,9.867,0,0,0-3.483,3.6,9.707,9.707,0,0,0-1.239,4.734v3.515A1.884,1.884,0,0,0,0,30.218v1.254a.627.627,0,0,0,.627.627H18.182a.627.627,0,0,0,.627-.627V30.218a1.884,1.884,0,0,0-1.254-1.773V24.931A9.707,9.707,0,0,0,16.316,20.2a9.867,9.867,0,0,0-3.483-3.6.656.656,0,0,1,0-1.1ZM1.254,1.254h16.3v.627a.628.628,0,0,1-.627.627H1.881a.628.628,0,0,1-.627-.627Zm16.3,29.592H1.254v-.627a.628.628,0,0,1,.627-.627H16.928a.628.628,0,0,1,.627.627ZM12.182,17.67a8.451,8.451,0,0,1,4.119,7.26v3.407H2.508V24.931a8.451,8.451,0,0,1,4.119-7.26,1.909,1.909,0,0,0,0-3.242,8.451,8.451,0,0,1-4.119-7.26V3.761H16.3V7.168a8.451,8.451,0,0,1-4.119,7.26,1.909,1.909,0,0,0,0,3.242Zm0,0" transform="translate(0 0)"/><path class="b" d="M66.142,342.712a.626.626,0,0,0-.5-.251h0a.627.627,0,0,0-.5.25,3.189,3.189,0,0,1-.875.795,14.2,14.2,0,0,1-1.926.942c-1.255.53-2.339.987-2.339,2.725v.276a.627.627,0,0,0,.627.627H70.658a.627.627,0,0,0,.627-.627v-.276c0-1.737-1.087-2.2-2.345-2.728A14.482,14.482,0,0,1,67,343.492,3.12,3.12,0,0,1,66.142,342.712Zm3.864,4.109H61.279c.1-.579.491-.772,1.548-1.218a15.491,15.491,0,0,0,2.089-1.025l.006,0a4.525,4.525,0,0,0,.719-.55,4.409,4.409,0,0,0,.7.535l.007,0a15.753,15.753,0,0,0,2.107,1.036c1.062.449,1.459.642,1.554,1.222Zm0,0" transform="translate(-56.238 -320.991)"/><path class="b" d="M71.285,87.779V86.626a.627.627,0,0,0-.959-.532,8.837,8.837,0,0,1-9.366,0,.627.627,0,0,0-.959.532v1.153a5.968,5.968,0,0,0,1.211,3.375,10.233,10.233,0,0,0,3.079,2.813,3.094,3.094,0,0,1,.726.651v3.1a.627.627,0,0,0,1.254,0v-3.1a3.2,3.2,0,0,1,.751-.666c2.551-1.539,4.265-4.019,4.265-6.174Zm-4.915,5.1-.006,0a4.241,4.241,0,0,0-.719.566,4.048,4.048,0,0,0-.7-.551l-.007,0c-2.205-1.328-3.686-3.384-3.686-5.116v-.092a10.093,10.093,0,0,0,8.777,0v.092C70.031,89.484,68.526,91.582,66.37,92.881Zm0,0" transform="translate(-56.238 -80.607)"/></g></svg>