<svg xmlns="http://www.w3.org/2000/svg" width="130.119" height="141.63" viewBox="0 0 130.119 141.63"><defs><style>.a{opacity:0.25;}.b{fill:#5b74ff;}.c{fill:#d5dbff;}</style></defs><g class="a" transform="translate(0 41.871) rotate(-30)"><path class="b" d="M41.216,28.615,13.122.52A1.8,1.8,0,0,0,11.864,0H1.777a1.777,1.777,0,1,0,0,3.555h8.31V25.823a5.833,5.833,0,0,0,5.826,5.827H38.182V63.133a1.777,1.777,0,0,0,3.555,0V29.872a1.784,1.784,0,0,0-.52-1.257ZM13.642,25.823V6.069L35.667,28.095H15.913a2.274,2.274,0,0,1-2.271-2.272Zm0,0" transform="translate(42.006 0)"/><path class="b" d="M37.934,0H5.531A5.537,5.537,0,0,0,0,5.531V109.66a5.538,5.538,0,0,0,5.531,5.531h72.68a5.538,5.538,0,0,0,5.531-5.531V67.808a1.687,1.687,0,1,0-3.375,0V109.66a2.159,2.159,0,0,1-2.157,2.157H5.531a2.159,2.159,0,0,1-2.157-2.157V5.531A2.159,2.159,0,0,1,5.531,3.375h32.4a1.687,1.687,0,1,0,0-3.375Zm0,0" transform="translate(0 0)"/></g><g transform="translate(37.457 48.141)"><path class="c" d="M27.3,0A27.3,27.3,0,1,0,54.6,27.3,27.332,27.332,0,0,0,27.3,0Zm0,51.189A23.888,23.888,0,1,1,51.189,27.3,23.915,23.915,0,0,1,27.3,51.189Z"/><path class="c" d="M153.139,137.783h-3.413v11.944H137.782v3.413h11.944v11.944h3.413V153.14h11.944v-3.413H153.139Z" transform="translate(-124.132 -124.133)"/></g></svg>