<svg xmlns="http://www.w3.org/2000/svg" width="116.969" height="123.821" viewBox="0 0 116.969 123.821"><defs><style>.a{opacity:0.4;}.b{fill:#5963e4;}</style></defs><g class="a" transform="translate(-34.292 59.186) rotate(-30)"><g transform="translate(39.597)"><g transform="translate(0)"><path class="b" d="M107.684,0H60.4A10.716,10.716,0,0,0,49.715,10.591,10.692,10.692,0,0,0,39.6,21.277V86.811A10.736,10.736,0,0,0,50.283,97.5H97.565a10.716,10.716,0,0,0,10.686-10.591A10.692,10.692,0,0,0,118.37,76.219V10.78A10.636,10.636,0,0,0,107.684,0Zm-2.932,86.811A7.184,7.184,0,0,1,97.565,94H50.283a7.083,7.083,0,0,1-7.092-7.092V21.277a7.083,7.083,0,0,1,7.092-7.092h38.2V30.639a1.8,1.8,0,0,0,1.8,1.8h14.468ZM92.081,28.842V17.022l10.5,11.821Zm16.265,54.564V30.639c0-.189-.095-.473-.095-.662a.33.33,0,0,0-.095-.189c-.095-.095-.095-.189-.189-.284L91.608,11.159a2.067,2.067,0,0,0-.473-.284c-.095,0-.095-.095-.189-.095a1.782,1.782,0,0,0-.757-.189H53.309a7.125,7.125,0,0,1,7.092-7h47.283a7.083,7.083,0,0,1,7.092,7.092V76.314h.095A7.183,7.183,0,0,1,108.346,83.406Z" transform="translate(-39.597)"/><path class="b" d="M88.194,125.593h15.792a1.8,1.8,0,1,0,0-3.593H88.194a1.8,1.8,0,0,0-1.8,1.8A1.739,1.739,0,0,0,88.194,125.593Z" transform="translate(-75.333 -93.158)"/><path class="b" d="M103.892,320.8h-15.7a1.8,1.8,0,0,0,0,3.593h15.792a1.8,1.8,0,0,0,1.8-1.8A1.947,1.947,0,0,0,103.892,320.8Z" transform="translate(-75.333 -244.959)"/><path class="b" d="M86.4,174.2a1.8,1.8,0,0,0,1.8,1.8H130.37a1.8,1.8,0,0,0,1.8-1.8,1.86,1.86,0,0,0-1.8-1.8H88.194A1.8,1.8,0,0,0,86.4,174.2Z" transform="translate(-75.333 -131.642)"/><path class="b" d="M130.37,209.6H88.194a1.8,1.8,0,0,0,0,3.594H130.37a1.8,1.8,0,0,0,1.8-1.8A1.86,1.86,0,0,0,130.37,209.6Z" transform="translate(-75.333 -160.048)"/><path class="b" d="M130.37,247.2H88.194a1.8,1.8,0,0,0,0,3.593H130.37a1.8,1.8,0,1,0,0-3.593Z" transform="translate(-75.333 -188.759)"/><path class="b" d="M130.37,284.4H88.194a1.8,1.8,0,1,0,0,3.593H130.37a1.8,1.8,0,1,0,0-3.593Z" transform="translate(-75.333 -217.164)"/></g></g></g></svg>