<svg xmlns="http://www.w3.org/2000/svg" width="15.081" height="18.401" viewBox="0 0 15.081 18.401"><defs><style>.a{fill:#ddeafb;}.b{fill:#cbe2ff;}.c{fill:#bed8fb;}.d{fill:#071e41;}.e{fill:#6ca97e;}.f{fill:#ec7268;}.g{fill:#fad870;}</style></defs><g transform="translate(-46.183 0)"><g transform="translate(46.183 0)"><path class="a" d="M61.264,7.063v9.861A1.476,1.476,0,0,1,59.788,18.4H47.659a1.477,1.477,0,0,1-1.436-1.132l-.006-.844L46.183,11.4V1.476A1.476,1.476,0,0,1,47.659,0H54.2c.588,0,2.492,1.623,4.175,3.333,1.536,1.561,2.888,3.193,2.888,3.73Z" transform="translate(-46.183 0)"/><path class="b" d="M334.3,96.478v3.612s0-.008,0-.013c-.111-4.433-3.722-4.638-4.9-5.818l2.015-1.511C332.952,94.309,334.3,95.941,334.3,96.478Z" transform="translate(-319.222 -89.415)"/><path class="b" d="M172.381,0h-3.6c4.433.111,4.638,3.722,5.818,4.9l1.511-2.015C174.551,1.352,172.918,0,172.381,0Z" transform="translate(-164.363 0)"/><path class="c" d="M259.594,7.063v.625a2.381,2.381,0,0,0-2.381-2.381h-1.449a1.477,1.477,0,0,1-1.476-1.476V2.381A2.381,2.381,0,0,0,251.906,0h.625a4.241,4.241,0,0,1,3,1.242l2.823,2.823A4.241,4.241,0,0,1,259.594,7.063Z" transform="translate(-244.512 0)"/></g><g transform="translate(48.398 2.112)"><path class="d" d="M118.183,415.873h-10.1a.278.278,0,0,1,0-.555h10.1a.278.278,0,0,1,0,.555Z" transform="translate(-107.809 -402.504)"/><path class="d" d="M111.8,456.968H108.09a.278.278,0,1,1,0-.555H111.8a.278.278,0,1,1,0,.555Z" transform="translate(-107.812 -442.122)"/><path class="d" d="M111.8,59.32H108.09a.278.278,0,0,1,0-.555H111.8a.278.278,0,0,1,0,.555Z" transform="translate(-107.812 -58.765)"/></g><g transform="translate(48.035 4.172)"><g transform="translate(0)"><path class="e" d="M99.9,116.079h-1.49a.683.683,0,0,0-.683.683v8.526a.683.683,0,0,0,.683.683H99.9a.683.683,0,0,0,.683-.683v-8.526A.683.683,0,0,0,99.9,116.079Z" transform="translate(-97.726 -116.079)"/><path class="f" d="M218.431,291.238h-1.49a.683.683,0,0,0-.683.683v2.231a.683.683,0,0,0,.683.683h1.49a.683.683,0,0,0,.683-.683v-2.231A.683.683,0,0,0,218.431,291.238Z" transform="translate(-211.998 -284.943)"/><path class="g" d="M336.962,194.471h-1.49a.683.683,0,0,0-.683.683v5.709a.683.683,0,0,0,.683.683h1.49a.683.683,0,0,0,.683-.683v-5.709A.683.683,0,0,0,336.962,194.471Z" transform="translate(-326.269 -191.654)"/></g></g></g></svg>