<svg xmlns="http://www.w3.org/2000/svg" width="152.847" height="166.368" viewBox="0 0 152.847 166.368"><defs><style>.a{opacity:0.25;}.b{fill:#5b74ff;}</style></defs><g class="a" transform="translate(0 49.185) rotate(-30)"><path class="b" d="M48.416,33.613l-33-33A2.112,2.112,0,0,0,13.937,0H2.088a2.088,2.088,0,1,0,0,4.176h9.761V30.333a6.851,6.851,0,0,0,6.843,6.844H44.851V74.16a2.088,2.088,0,1,0,4.176,0V35.09a2.1,2.1,0,0,0-.611-1.477Zm-32.391-3.28V7.129L41.9,33H18.692a2.672,2.672,0,0,1-2.668-2.669Zm0,0" transform="translate(49.343 0)"/><path class="b" d="M44.56,0H6.5A6.5,6.5,0,0,0,0,6.5V128.814a6.5,6.5,0,0,0,6.5,6.5H91.872a6.506,6.506,0,0,0,6.5-6.5V79.652a1.982,1.982,0,1,0-3.964,0v49.162a2.536,2.536,0,0,1-2.533,2.533H6.5a2.536,2.536,0,0,1-2.533-2.533V6.5A2.536,2.536,0,0,1,6.5,3.964H44.56A1.982,1.982,0,0,0,44.56,0Zm0,0" transform="translate(0 0)"/></g></svg>