<svg xmlns="http://www.w3.org/2000/svg" width="14.483" height="22" viewBox="0 0 14.483 22"><defs><style>.a{fill:#29f143;fill-rule:evenodd;}</style></defs><g transform="translate(0 0)"><path class="a" d="M14.482,4.3s0-.009,0-.014a.429.429,0,0,0-.007-.055h0a.451.451,0,0,0-.015-.054l0-.013a.464.464,0,0,0-.021-.049v0a.421.421,0,0,0-.03-.047l-.008-.011a.434.434,0,0,0-.037-.043L10.469.126a.433.433,0,0,0-.043-.037L10.414.08a.407.407,0,0,0-.047-.03l0,0a.45.45,0,0,0-.048-.021l-.014,0a.44.44,0,0,0-.053-.015h0A.455.455,0,0,0,10.194,0H.43A.43.43,0,0,0,0,.429V18.821a.43.43,0,0,0,.43.43H6.9V21.57a.43.43,0,0,0,.658.364l1.636-1.027,1.636,1.027a.43.43,0,0,0,.658-.364V19.25h2.565a.43.43,0,0,0,.43-.43V4.318s0-.01,0-.015ZM10.595,1.467l2.421,2.421H10.595Zm-3.908,11.8A1.32,1.32,0,0,1,6.607,13a1.275,1.275,0,0,1,.221-.16,1.56,1.56,0,0,0,.453-.378,1.549,1.549,0,0,0,.224-.55,1.389,1.389,0,0,1,.08-.249.537.537,0,0,1,.106-.008c.048,0,.1,0,.158.006s.132.007.2.007a1.218,1.218,0,0,0,.393-.055,1.62,1.62,0,0,0,.5-.306,1.1,1.1,0,0,1,.251-.173,1.027,1.027,0,0,1,.255.173,1.621,1.621,0,0,0,.5.306,1.218,1.218,0,0,0,.393.055c.07,0,.137,0,.2-.007s.11-.006.158-.006a.525.525,0,0,1,.106.008,1.377,1.377,0,0,1,.08.249,1.55,1.55,0,0,0,.225.55,1.558,1.558,0,0,0,.453.378,1.289,1.289,0,0,1,.221.16,1.329,1.329,0,0,1-.08.271,1.7,1.7,0,0,0-.136.59,1.707,1.707,0,0,0,.136.59,1.32,1.32,0,0,1,.081.271,1.289,1.289,0,0,1-.221.16,1.227,1.227,0,0,0-.677.928,1.4,1.4,0,0,1-.08.249.539.539,0,0,1-.106.008c-.048,0-.1,0-.158-.006s-.132-.007-.2-.007a1.218,1.218,0,0,0-.393.055,1.625,1.625,0,0,0-.5.306,1.071,1.071,0,0,1-.253.172,1.07,1.07,0,0,1-.253-.172,1.627,1.627,0,0,0-.5-.306,1.218,1.218,0,0,0-.393-.055c-.07,0-.137,0-.2.007s-.11.006-.158.006a.539.539,0,0,1-.106-.008,1.389,1.389,0,0,1-.08-.249,1.546,1.546,0,0,0-.224-.55,1.555,1.555,0,0,0-.453-.378,1.28,1.28,0,0,1-.221-.16,1.332,1.332,0,0,1,.08-.271,1.7,1.7,0,0,0,.136-.59,1.705,1.705,0,0,0-.136-.59Zm3.942,7.522-1.207-.757a.431.431,0,0,0-.457,0l-1.207.757V16.926l.134-.005c.057,0,.111-.006.159-.006a.421.421,0,0,1,.121.011,1.157,1.157,0,0,1,.229.16,1.265,1.265,0,0,0,.792.362,1.265,1.265,0,0,0,.792-.362,1.152,1.152,0,0,1,.228-.16.424.424,0,0,1,.122-.011c.049,0,.1,0,.159.006l.134.005v3.867Zm.859-2.4V16.58a1.564,1.564,0,0,0,.226-.554,1.106,1.106,0,0,1,.086-.257,1.115,1.115,0,0,1,.218-.16A1.212,1.212,0,0,0,12.6,15a1.241,1.241,0,0,0-.091-.839,1.161,1.161,0,0,1-.084-.294,1.16,1.16,0,0,1,.084-.294,1.242,1.242,0,0,0,.091-.839,1.212,1.212,0,0,0-.579-.614,1.129,1.129,0,0,1-.218-.159,1.11,1.11,0,0,1-.086-.257,1.2,1.2,0,0,0-.4-.73A1.021,1.021,0,0,0,10.7,10.8c-.069,0-.137,0-.2.007s-.111.006-.159.006a.422.422,0,0,1-.122-.011,1.147,1.147,0,0,1-.228-.16,1.267,1.267,0,0,0-.792-.362,1.266,1.266,0,0,0-.792.362,1.154,1.154,0,0,1-.228.16.423.423,0,0,1-.122.011c-.048,0-.1,0-.159-.006s-.132-.007-.2-.007a1.02,1.02,0,0,0-.616.171,1.2,1.2,0,0,0-.4.73,1.115,1.115,0,0,1-.085.257,1.129,1.129,0,0,1-.219.16,1.213,1.213,0,0,0-.579.614,1.242,1.242,0,0,0,.091.839,1.16,1.16,0,0,1,.084.294,1.161,1.161,0,0,1-.084.294A1.242,1.242,0,0,0,5.79,15a1.214,1.214,0,0,0,.579.614,1.124,1.124,0,0,1,.219.16,1.115,1.115,0,0,1,.085.257,1.563,1.563,0,0,0,.226.554v1.811H.86V.859H9.735V4.318a.43.43,0,0,0,.43.43h3.458V18.391Zm0,0" transform="translate(0 0)"/><path class="a" d="M49.293,91.351h5.536a.43.43,0,1,0,0-.859H49.293a.43.43,0,1,0,0,.859Zm0,0" transform="translate(-46.763 -86.604)"/><path class="a" d="M58.766,140.969H49.294a.43.43,0,1,0,0,.859h9.472a.43.43,0,1,0,0-.859Zm0,0" transform="translate(-46.764 -134.912)"/><path class="a" d="M57.047,191.445H49.294a.43.43,0,1,0,0,.859h7.753a.43.43,0,1,0,0-.859Zm0,0" transform="translate(-46.764 -183.219)"/><path class="a" d="M269.739,191.445a.43.43,0,1,0,.43.43A.43.43,0,0,0,269.739,191.445Zm0,0" transform="translate(-257.737 -183.219)"/></g></svg>