<svg xmlns="http://www.w3.org/2000/svg" width="21.805" height="23.314" viewBox="0 0 21.805 23.314"><defs><style>.a{fill:#545ee4;}</style></defs><g transform="translate(-16.569)"><path class="a" d="M84.682,248.5H83.174a.341.341,0,0,0-.342.341V251.1a.341.341,0,0,0,.342.342h1.509a.342.342,0,0,0,.342-.342V248.84A.342.342,0,0,0,84.682,248.5Zm-.342,2.263h-.826v-1.58h.826Z" transform="translate(-63.246 -237.184)"/><path class="a" d="M84.682,347.9H83.174a.341.341,0,0,0-.342.342V350.5a.341.341,0,0,0,.342.342h1.509a.342.342,0,0,0,.342-.342v-2.263A.342.342,0,0,0,84.682,347.9Zm-.342,2.263h-.826v-1.58h.826Z" transform="translate(-63.246 -332.058)"/><path class="a" d="M381.374,251.445h1.509a.341.341,0,0,0,.342-.341v-2.263a.341.341,0,0,0-.342-.342h-1.509a.341.341,0,0,0-.341.342V251.1A.341.341,0,0,0,381.374,251.445Zm.342-2.263h.826v1.58h-.826Z" transform="translate(-347.868 -237.184)"/><path class="a" d="M382.883,347.9h-1.509a.342.342,0,0,0-.342.342V350.5a.342.342,0,0,0,.342.342h1.509a.342.342,0,0,0,.342-.342v-2.263A.342.342,0,0,0,382.883,347.9Zm-.341,2.263h-.826v-1.58h.826Z" transform="translate(-347.868 -332.058)"/><path class="a" d="M201.406,204.009a2.6,2.6,0,1,0-2.6-2.6A2.607,2.607,0,0,0,201.406,204.009Zm0-4.526a1.922,1.922,0,1,1-1.921,1.922A1.924,1.924,0,0,1,201.406,199.483Z" transform="translate(-173.934 -189.748)"/><path class="a" d="M248.84,225.465h.754a.341.341,0,0,0,0-.683h-.413v-.79a.342.342,0,1,0-.683,0v1.131A.341.341,0,0,0,248.84,225.465Z" transform="translate(-221.369 -213.466)"/><path class="a" d="M38.032,22.631h-.413V21.463a.341.341,0,0,0-.342-.342h-.413V10.49h.413a.342.342,0,0,0,.242-.583L33.748,6.135a.341.341,0,0,0-.242-.1H29.358L27.813,4.71V3.7h3.43a.342.342,0,0,0,.284-.531L30.9,2.227l.628-.942a.342.342,0,0,0-.284-.531h-3.43V.342a.342.342,0,1,0-.683,0V4.71L25.585,6.035H21.436a.342.342,0,0,0-.242.1L17.423,9.907a.342.342,0,0,0,.242.583h.413V21.122h-.413a.341.341,0,0,0-.342.342v1.167h-.413a.342.342,0,1,0,0,.683h2.711a.342.342,0,1,0,0-.683H18.006V21.8h18.93v.826H20.988a.342.342,0,1,0,0,.683H38.032a.342.342,0,1,0,0-.683Zm-1.85-1.509H32.339V11l.191.163a.341.341,0,0,0,.564-.259V10.49h3.089V21.122Zm-8.711-15.8L32.41,9.551v.609L27.694,6.117a.341.341,0,0,0-.445,0L22.532,10.16V9.551Zm-4.185,5.1,4.185-3.587,4.185,3.587V21.122h-1.2v-4.6h.036a.342.342,0,0,0,0-.683H24.454a.342.342,0,1,0,0,.683h.036v4.6h-1.2Zm6.483,6.112v4.6H27.813v-4.6Zm-2.64,4.6H25.173v-4.6H27.13Zm6.235-14.4,3.089,3.089h-3.36V9.394a.341.341,0,0,0-.119-.259L30.155,6.718ZM30.6,1.437l-.4.6a.341.341,0,0,0,0,.379l.4.6H27.813V1.437Zm-9.027,5.28h3.21L21.969,9.134a.342.342,0,0,0-.119.259v.413h-3.36ZM18.761,10.49h3.089V10.9a.341.341,0,0,0,.564.259L22.6,11V21.122H18.761Z" transform="translate(0)"/></g></svg>