<svg id="calendar" xmlns="http://www.w3.org/2000/svg" width="20" height="20" viewBox="0 0 20 20">
  <path id="Path_800" data-name="Path 800" d="M18.828,11.416V1.8a.586.586,0,0,0-.586-.586H15.273V.586a.586.586,0,0,0-1.172,0v.625H11.758V.586a.586.586,0,0,0-1.172,0v.625H8.242V.586a.586.586,0,0,0-1.172,0v.625H4.727V.586a.586.586,0,0,0-1.172,0v.625H.586A.586.586,0,0,0,0,1.8V17.07a.586.586,0,0,0,.586.586h9.758a5.271,5.271,0,1,0,8.484-6.24ZM3.555,2.383v.586a.586.586,0,0,0,1.172,0V2.383H7.07v.586a.586.586,0,0,0,1.172,0V2.383h2.344v.586a.586.586,0,0,0,1.172,0V2.383H14.1v.586a.586.586,0,0,0,1.172,0V2.383h2.383V4.727H1.172V2.383Zm-2.383,14.1V5.9H17.656v4.446A5.267,5.267,0,0,0,10.3,11.86a.582.582,0,0,0-.263-.063H8.867a.586.586,0,0,0,0,1.172h.888a5.23,5.23,0,0,0-.269,1.172H8.867a.586.586,0,0,0,0,1.172h.619a5.221,5.221,0,0,0,.269,1.172Zm13.555,2.344a4.1,4.1,0,1,1,4.1-4.1A4.106,4.106,0,0,1,14.727,18.828Zm0,0" fill="#5963e4"/>
  <path id="Path_801" data-name="Path 801" d="M364.93,304.344h-1.758v-1.758a.586.586,0,0,0-1.172,0v2.344a.586.586,0,0,0,.586.586h2.344a.586.586,0,0,0,0-1.172Zm0,0" transform="translate(-347.859 -290.203)" fill="#5963e4"/>
  <path id="Path_802" data-name="Path 802" d="M92.758,182H91.586a.586.586,0,0,0,0,1.172h1.172a.586.586,0,0,0,0-1.172Zm0,0" transform="translate(-87.445 -174.891)" fill="#5963e4"/>
  <path id="Path_803" data-name="Path 803" d="M92.758,242H91.586a.586.586,0,0,0,0,1.172h1.172a.586.586,0,0,0,0-1.172Zm0,0" transform="translate(-87.445 -232.547)" fill="#5963e4"/>
  <path id="Path_804" data-name="Path 804" d="M92.758,302H91.586a.586.586,0,0,0,0,1.172h1.172a.586.586,0,0,0,0-1.172Zm0,0" transform="translate(-87.445 -290.203)" fill="#5963e4"/>
  <path id="Path_805" data-name="Path 805" d="M212.586,183.172h1.172a.586.586,0,0,0,0-1.172h-1.172a.586.586,0,0,0,0,1.172Zm0,0" transform="translate(-203.719 -174.891)" fill="#5963e4"/>
  <path id="Path_806" data-name="Path 806" d="M212.586,243.172h1.172a.586.586,0,0,0,0-1.172h-1.172a.586.586,0,0,0,0,1.172Zm0,0" transform="translate(-203.719 -232.547)" fill="#5963e4"/>
  <path id="Path_807" data-name="Path 807" d="M92.758,362H91.586a.586.586,0,0,0,0,1.172h1.172a.586.586,0,0,0,0-1.172Zm0,0" transform="translate(-87.445 -347.859)" fill="#5963e4"/>
  <path id="Path_808" data-name="Path 808" d="M332.586,183.172h1.172a.586.586,0,0,0,0-1.172h-1.172a.586.586,0,0,0,0,1.172Zm0,0" transform="translate(-319.031 -174.891)" fill="#5963e4"/>
</svg>
