<svg xmlns="http://www.w3.org/2000/svg" width="16.845" height="18.247" viewBox="0 0 16.845 18.247"><defs><style>.a{fill:#ddeafb;}.b{fill:#cbe2ff;}.c{fill:#bed8fb;}.d{fill:#f1d333;}.e{fill:#eab14d;}.f{fill:#80b4fb;}.g{fill:#5ea5ec;}</style></defs><g transform="translate(-19.672 0)"><g transform="translate(21.562 0)"><path class="a" d="M87.648,7v9.779a1.464,1.464,0,0,1-1.464,1.464H74.157a1.464,1.464,0,0,1-1.424-1.123l-.006-.837L72.693,11.3V1.464A1.464,1.464,0,0,1,74.157,0h6.487c.583,0,2.471,1.61,4.14,3.305,1.523,1.548,2.864,3.166,2.864,3.7Z" transform="translate(-72.693 0)"/><path class="b" d="M360.773,96.447v3.582s0-.008,0-.012c-.11-4.4-3.691-4.6-4.861-5.77l2-1.5C359.432,94.3,360.773,95.914,360.773,96.447Z" transform="translate(-345.817 -89.443)"/><path class="b" d="M198.862,0h-3.57c4.4.11,4.6,3.691,5.77,4.861l1.5-2C201.013,1.341,199.395,0,198.862,0Z" transform="translate(-190.911 0)"/><path class="c" d="M286.04,7v.619a2.361,2.361,0,0,0-2.361-2.361h-1.437A1.464,1.464,0,0,1,280.777,3.8V2.361A2.361,2.361,0,0,0,278.416,0h.619a4.206,4.206,0,0,1,2.973,1.232l2.8,2.8A4.206,4.206,0,0,1,286.04,7Z" transform="translate(-271.084 0)"/></g><g transform="translate(19.672 1.462)"><path class="d" d="M242.005,440.176a.275.275,0,0,1-.242-.144l-.48-.881a.275.275,0,1,1,.484-.263l.48.881a.275.275,0,0,1-.242.407Z" transform="translate(-233.353 -424.57)"/><path class="e" d="M82.56,63.266a.274.274,0,0,1-.128-.032c-.543-.284-1.038-1.438-1.8-3.3A14.008,14.008,0,0,0,78.6,56.022a1.43,1.43,0,0,0-1.985-.09.275.275,0,0,1-.317-.45,1.986,1.986,0,0,1,2.678.138,13.809,13.809,0,0,1,2.162,4.11c.542,1.318,1.156,2.812,1.548,3.018a.275.275,0,0,1-.128.519Z" transform="translate(-74.169 -54.525)"/><path class="d" d="M22.35,42.523l-.618-1.176a.609.609,0,0,0-.822-.255l-.912.48a.609.609,0,0,0-.255.822l.618,1.176" transform="translate(-19.672 -41.022)"/><path class="e" d="M20.746,45.407a.609.609,0,0,0-.255.822l.618,1.176-.748.393-.618-1.176A.609.609,0,0,1,20,45.8Z" transform="translate(-19.673 -45.251)"/><path class="f" d="M44.983,95.955c-.742.39-2.343-1.107-3.988-3.575q-.151-.226-.3-.463c-.449-.7-.9-1.476-1.33-2.3a25.328,25.328,0,0,1-2.2-5.486.913.913,0,0,1,.464-1.023l.939-.494a.914.914,0,0,1,1.105.2,25.334,25.334,0,0,1,3.274,4.919c.432.822.814,1.629,1.139,2.4q.11.259.211.511c1.1,2.755,1.428,4.922.685,5.312Z" transform="translate(-36.518 -81.032)"/><path class="g" d="M44.982,107.322c-.99.521-3.506-2.317-5.62-6.337a25.329,25.329,0,0,1-2.2-5.486.914.914,0,0,1,.464-1.022l.34-.179c-.1.053-.059.351.106.723.6,1.37,1.516,3.242,2.587,5.281C42.776,104.321,44.71,107.465,44.982,107.322Z" transform="translate(-36.517 -92.399)"/><path class="d" d="M140.434,296.843l-3.3,1.737q-.151-.226-.3-.463l3.394-1.785Q140.333,296.591,140.434,296.843Z" transform="translate(-132.654 -287.233)"/></g></g></svg>