<svg xmlns="http://www.w3.org/2000/svg" width="87.203" height="109.004" viewBox="0 0 87.203 109.004"><defs><style>.a{fill:#bcc0f4;}.b{fill:#545ee4;}</style></defs><g transform="translate(-64 -16)"><path class="a" d="M208,200h14.534v3.633H208Z" transform="translate(-111.299 -142.215)"/><path class="a" d="M112,200h16.351v3.633H112Z" transform="translate(-37.1 -142.215)"/><path class="b" d="M248,232h30.884v3.633H248Z" transform="translate(-142.215 -166.948)"/><path class="b" d="M160,232h14.534v3.633H160Z" transform="translate(-74.199 -166.948)"/><path class="a" d="M112,232h7.267v3.633H112Z" transform="translate(-37.1 -166.948)"/><path class="a" d="M192,280h25.434v3.633H192Z" transform="translate(-98.932 -204.048)"/><path class="a" d="M344,336h9.084v3.633H344Z" transform="translate(-216.414 -247.331)"/><path class="b" d="M224,336h21.8v3.633H224Z" transform="translate(-123.665 -247.331)"/><path class="a" d="M112,336h19.984v3.633H112Z" transform="translate(-37.1 -247.331)"/><path class="a" d="M288,368h21.8v3.633H288Z" transform="translate(-173.131 -272.064)"/><path class="a" d="M168,368h21.8v3.633H168Z" transform="translate(-80.382 -272.064)"/><path class="a" d="M112,368h7.267v3.633H112Z" transform="translate(-37.1 -272.064)"/><path class="a" d="M352,400h7.267v3.633H352Z" transform="translate(-222.598 -296.797)"/><path class="b" d="M208,400h27.251v3.633H208Z" transform="translate(-111.299 -296.797)"/><path class="b" d="M112,400h16.351v3.633H112Z" transform="translate(-37.1 -296.797)"/><path class="a" d="M360,432h5.45v3.633H360Z" transform="translate(-228.781 -321.53)"/><path class="b" d="M256,432h18.167v3.633H256Z" transform="translate(-148.398 -321.53)"/><path class="a" d="M112,432h27.251v3.633H112Z" transform="translate(-37.1 -321.53)"/><path class="a" d="M73.084,125H142.12a9.094,9.094,0,0,0,9.084-9.084V48.078a9.023,9.023,0,0,0-2.661-6.423L125.549,18.66h0A9.025,9.025,0,0,0,119.125,16H73.084A9.094,9.094,0,0,0,64,25.084V115.92A9.094,9.094,0,0,0,73.084,125Zm-5.45-99.92a5.456,5.456,0,0,1,5.45-5.45h46.042a5.493,5.493,0,0,1,1.193.132V37.8a9.094,9.094,0,0,0,9.084,9.084h10.9V43.251H129.4a5.456,5.456,0,0,1-5.45-5.45V22.2l22.021,22.021a5.414,5.414,0,0,1,1.6,3.854V115.92a5.456,5.456,0,0,1-5.45,5.45H73.084a5.456,5.456,0,0,1-5.45-5.45Z" transform="translate(0 0)"/><path class="b" d="M112.727,77.437l7.267,5.45a1.816,1.816,0,0,0,1.09.363h7.267a1.816,1.816,0,0,0,1.09-.363l7.267-5.45a1.817,1.817,0,0,0,.727-1.453v-10.9a1.817,1.817,0,0,0-.809-1.512l-10.9-7.267a1.816,1.816,0,0,0-2.015,0l-10.9,7.267A1.817,1.817,0,0,0,112,65.084v10.9a1.817,1.817,0,0,0,.727,1.453Zm15.018,2.18h-6.056l-6.056-4.542v-6.6l8.076,5.384a1.816,1.816,0,0,0,2.015,0l8.076-5.384v6.6ZM124.717,60l7.625,5.084-7.625,5.084-7.625-5.084Z" transform="translate(-37.099 -30.916)"/></g></svg>