<svg xmlns="http://www.w3.org/2000/svg" width="20.665" height="20.423" viewBox="0 0 20.665 20.423"><defs><style>.a{fill:#545ee4;}</style></defs><g transform="translate(0 -3)"><g transform="translate(12.107 13.22)"><path class="a" d="M301.649,259.113a.777.777,0,1,1,.888-.769.4.4,0,1,0,.807,0,1.606,1.606,0,0,0-1.292-1.53v-.21a.4.4,0,0,0-.807,0v.21a1.606,1.606,0,0,0-1.292,1.53,1.641,1.641,0,0,0,1.7,1.576.777.777,0,1,1-.888.769.4.4,0,1,0-.807,0,1.606,1.606,0,0,0,1.292,1.53v.174a.4.4,0,0,0,.807,0v-.174a1.606,1.606,0,0,0,1.292-1.53A1.641,1.641,0,0,0,301.649,259.113Z" transform="translate(-299.954 -256.201)"/></g><g transform="translate(15.496 11.79)"><path class="a" d="M386.651,222.726a5.259,5.259,0,0,0-2.148-1.9.4.4,0,1,0-.35.728,4.444,4.444,0,0,1,2,6.086.4.4,0,1,0,.713.379,5.253,5.253,0,0,0-.216-5.292Z" transform="translate(-383.924 -220.785)"/></g><g transform="translate(14.005 11.315)"><path class="a" d="M347.431,209H347.4a.4.4,0,1,0,0,.807h.025a.4.4,0,0,0,0-.807Z" transform="translate(-347 -209.001)"/></g><g transform="translate(8.557 13.886)"><path class="a" d="M215.328,279.391a4.444,4.444,0,0,1-2-6.086.4.4,0,1,0-.713-.379,5.249,5.249,0,0,0,2.364,7.193.4.4,0,1,0,.35-.728Z" transform="translate(-212.002 -272.711)"/></g><g transform="translate(12.769 21.001)"><path class="a" d="M316.807,449h-.023a.4.4,0,0,0,0,.807h.027a.4.4,0,1,0,0-.807Z" transform="translate(-316.378 -448.999)"/></g><g transform="translate(0 3)"><g transform="translate(0 0)"><path class="a" d="M15.636,9.949a1.853,1.853,0,0,0-.179-.33h1.051a1.857,1.857,0,0,0,0-3.713H13.276A1.855,1.855,0,0,0,11.745,3H1.857a1.857,1.857,0,0,0,0,3.713H5.089a1.851,1.851,0,0,0,0,2.1H4.036a1.856,1.856,0,0,0-1.154,3.31,1.853,1.853,0,0,0,0,2.906,1.853,1.853,0,0,0,0,2.906,1.856,1.856,0,0,0,1.154,3.31H8.793A6.86,6.86,0,1,0,15.636,9.949Zm.871-3.236a1.049,1.049,0,1,1,0,2.1H6.619a1.049,1.049,0,1,1,0-2.1ZM1.857,5.906a1.049,1.049,0,0,1,0-2.1h9.889a1.049,1.049,0,0,1,0,2.1Zm2.18,3.713h9.889a1.049,1.049,0,0,1,.458.105C14.192,9.709,14,9.7,13.8,9.7a6.84,6.84,0,0,0-4.855,2.018H4.036a1.049,1.049,0,0,1,0-2.1Zm0,2.906H8.259a6.842,6.842,0,0,0-1.037,2.1H4.036a1.049,1.049,0,1,1,0-2.1Zm0,2.906h3a6.867,6.867,0,0,0-.025,2.1H4.036a1.049,1.049,0,0,1,0-2.1Zm0,5a1.049,1.049,0,0,1,0-2.1h3.14a6.834,6.834,0,0,0,.968,2.1Zm9.768,2.18a6.054,6.054,0,1,1,6.054-6.054A6.061,6.061,0,0,1,13.8,22.616Z" transform="translate(0 -3)"/></g></g></g></svg>