<svg id="phone_2_" data-name="phone (2)" xmlns="http://www.w3.org/2000/svg" width="12.01" height="12.01" viewBox="0 0 12.01 12.01">
  <g id="Group_1004" data-name="Group 1004">
    <path id="Path_764" data-name="Path 764" d="M11.046,7.883A6.819,6.819,0,0,1,8.9,7.542a.943.943,0,0,0-.952.2L6.6,8.762A7.463,7.463,0,0,1,3.247,5.407l.989-1.315a.971.971,0,0,0,.239-.984A6.829,6.829,0,0,1,4.133.964.965.965,0,0,0,3.169,0H.964A.965.965,0,0,0,0,.964,11.059,11.059,0,0,0,11.046,12.01a.965.965,0,0,0,.964-.964v-2.2A.965.965,0,0,0,11.046,7.883Zm.3,3.163a.3.3,0,0,1-.3.3A10.391,10.391,0,0,1,.667.964a.3.3,0,0,1,.3-.3H3.169a.3.3,0,0,1,.3.3A7.482,7.482,0,0,0,3.84,3.313a.332.332,0,0,1-.106.342L2.588,5.174a.334.334,0,0,0-.031.352A8.282,8.282,0,0,0,6.483,9.452a.332.332,0,0,0,.353-.031L8.39,8.245a.294.294,0,0,1,.3-.07,7.492,7.492,0,0,0,2.354.376.3.3,0,0,1,.3.3Z" fill="#545ee4"/>
  </g>
</svg>
