<svg xmlns="http://www.w3.org/2000/svg" width="21.321" height="19.544" viewBox="0 0 21.321 19.544"><defs><style>.a{fill:#545ee4;}</style></defs><g transform="translate(0 -21.338)"><g transform="translate(0 21.338)"><g transform="translate(0 0)"><path class="a" d="M57.329,193.181A2.217,2.217,0,0,0,55.37,192H47.73a2.218,2.218,0,0,0-1.96,1.176l-2.843,5.331a2.231,2.231,0,0,0-.261,1.045v3.109a1.779,1.779,0,0,0,1.777,1.777H58.657a1.779,1.779,0,0,0,1.777-1.777v-3.109a2.235,2.235,0,0,0-.261-1.045Zm2.216,9.485a.889.889,0,0,1-.888.888H44.443a.889.889,0,0,1-.888-.888v-3.109a1.343,1.343,0,0,1,.157-.627l2.843-5.33a1.33,1.33,0,0,1,1.176-.705h7.64a1.33,1.33,0,0,1,1.176.705l2.843,5.33a1.346,1.346,0,0,1,.157.628Z" transform="translate(-40.889 -184.898)"/><circle class="a" cx="0.888" cy="0.888" r="0.888" transform="translate(7.106 9.772)"/><circle class="a" cx="0.888" cy="0.888" r="0.888" transform="translate(7.106 12.437)"/><circle class="a" cx="0.888" cy="0.888" r="0.888" transform="translate(7.106 15.102)"/><circle class="a" cx="0.888" cy="0.888" r="0.888" transform="translate(9.772 15.102)"/><circle class="a" cx="0.888" cy="0.888" r="0.888" transform="translate(12.437 15.102)"/><circle class="a" cx="0.888" cy="0.888" r="0.888" transform="translate(9.772 12.437)"/><circle class="a" cx="0.888" cy="0.888" r="0.888" transform="translate(12.437 12.437)"/><circle class="a" cx="0.888" cy="0.888" r="0.888" transform="translate(9.772 9.772)"/><circle class="a" cx="0.888" cy="0.888" r="0.888" transform="translate(12.437 9.772)"/><path class="a" d="M20.957,25.822a14.062,14.062,0,0,0-20.592,0,1.351,1.351,0,0,0,0,1.846l2.047,2.155a1.278,1.278,0,0,0,1.818,0A9.012,9.012,0,0,1,6.54,28.06a1.291,1.291,0,0,0,.694-1.114l.31-2.335a9.344,9.344,0,0,1,6.234,0l.305,2.276a1.335,1.335,0,0,0,.688,1.176,9.034,9.034,0,0,1,2.315,1.765,1.247,1.247,0,0,0,1.817,0l2.054-2.16a1.351,1.351,0,0,0,0-1.847Zm-.644,1.234-2.054,2.161a.367.367,0,0,1-.53,0,9.906,9.906,0,0,0-2.537-1.934.483.483,0,0,1-.225-.453l-.346-2.61a.445.445,0,0,0-.3-.362,11.12,11.12,0,0,0-3.655-.665A11.278,11.278,0,0,0,7,23.856a.444.444,0,0,0-.3.362l-.35,2.669a.435.435,0,0,1-.221.385,9.914,9.914,0,0,0-2.543,1.938.369.369,0,0,1-.53,0L1.008,27.056a.461.461,0,0,1,0-.622,13.173,13.173,0,0,1,19.3,0A.461.461,0,0,1,20.313,27.056Z" transform="translate(0 -21.338)"/></g></g></g></svg>