<svg xmlns="http://www.w3.org/2000/svg" width="84.102" height="79.991" viewBox="0 0 84.102 79.991"><defs><style>.a{opacity:0.1;}.b{fill:#fe6969;}.c{fill:none;stroke:#fe6969;stroke-linecap:round;stroke-width:2px;}</style></defs><g class="a" transform="matrix(-0.259, -0.966, 0.966, -0.259, 122.617, -126.864)"><path class="b" d="M-108.875-146.2c2.888,7.106-5.3,18.486-12.254,31.5-6.973,13.014-12.729,27.663-20.082,28.594-7.353.912-16.282-11.913-22.894-24.718s-10.887-25.611-6.422-33.629c4.484-8.037,17.688-11.286,31.273-11.495C-125.689-156.154-111.763-153.3-108.875-146.2Z" transform="translate(0)"/></g><g transform="translate(-637.598 -159.953)"><path class="b" d="M77.113,9.346,68.075.309A1.054,1.054,0,0,0,67.33,0H52.079A3.883,3.883,0,0,0,48.2,3.879V32.121A3.883,3.883,0,0,0,52.079,36H73.543a3.883,3.883,0,0,0,3.879-3.879V10.092a1.055,1.055,0,0,0-.309-.746ZM68.384,3.6l5.437,5.437H70.154a1.772,1.772,0,0,1-1.77-1.769Zm5.159,30.29H52.079a1.772,1.772,0,0,1-1.769-1.77V3.879a1.772,1.772,0,0,1,1.769-1.77h14.2V7.268a3.883,3.883,0,0,0,3.879,3.879h5.159V32.121a1.772,1.772,0,0,1-1.769,1.77Z" transform="translate(611.989 187)"/><path class="b" d="M137.5,192.8a8.962,8.962,0,1,0,8.963,8.962A8.973,8.973,0,0,0,137.5,192.8Zm0,15.816a6.853,6.853,0,1,1,6.853-6.853A6.861,6.861,0,0,1,137.5,208.616Z" transform="translate(537.305 7.756)"/><path class="c" d="M64.928,19.867,59.97,24.826" transform="translate(611.989 187.333)"/><path class="c" d="M64.928,19.867,59.97,24.826" transform="translate(696.784 147.231) rotate(90)"/></g></svg>