<svg xmlns="http://www.w3.org/2000/svg" width="84.045" height="78.624" viewBox="0 0 84.045 78.624"><defs><style>.a{opacity:0.1;}.b{fill:#545ee4;}.c{fill:#1366f3;}</style></defs><g class="a" transform="translate(-96.949 157.476) rotate(99)"><path class="b" d="M-105.13-141.73c2.793,6.871-4.772,17.74-11.7,30.47-.095.174-.326.6-.555,1.031-6.973,13.014-12.729,27.663-20.082,28.594-7.353.912-20.028-16.382-26.639-29.187s-10.887-25.611-6.422-33.629c4.484-8.037,17.688-11.286,31.273-11.495C-125.689-156.154-108.018-148.835-105.13-141.73Z" transform="translate(0)"/></g><path class="c" d="M33.981,4.1h-9.3V3.076A3.08,3.08,0,0,0,21.6,0H13.4a3.08,3.08,0,0,0-3.076,3.076V4.1h-9.3A1.028,1.028,0,0,0,0,5.127V27.685a3.08,3.08,0,0,0,3.076,3.076H31.924A3.08,3.08,0,0,0,35,27.685V5.145A1,1,0,0,0,33.981,4.1ZM12.373,3.076A1.027,1.027,0,0,1,13.4,2.051h8.2a1.027,1.027,0,0,1,1.025,1.025V4.1H12.373ZM32.552,6.152,29.368,15.7a1.024,1.024,0,0,1-.973.7H22.627V15.381A1.025,1.025,0,0,0,21.6,14.355H13.4a1.025,1.025,0,0,0-1.025,1.025v1.025H6.605a1.024,1.024,0,0,1-.973-.7L2.448,6.152ZM20.576,16.406v2.051H14.424V16.406ZM32.949,27.685a1.027,1.027,0,0,1-1.025,1.025H3.076a1.027,1.027,0,0,1-1.025-1.025V11.446l1.636,4.908a3.072,3.072,0,0,0,2.918,2.1h5.768v1.025A1.025,1.025,0,0,0,13.4,20.508h8.2a1.025,1.025,0,0,0,1.025-1.025V18.457H28.4a3.072,3.072,0,0,0,2.918-2.1l1.636-4.908Zm0,0" transform="translate(34.371 28.482)"/></svg>