<svg xmlns="http://www.w3.org/2000/svg" width="65.913" height="65.913" viewBox="0 0 65.913 65.913"><defs><style>.a{fill:#545ee4;}.b{fill:#bcc0f4;}</style></defs><g transform="translate(-0.001)"><g transform="translate(6.868 9.622)"><path class="a" d="M149.751,142.521a4.153,4.153,0,0,0-4.155,4.155,4.37,4.37,0,0,0,.394,1.771L133.7,160.76a4.04,4.04,0,0,0-1.771-.394,4.191,4.191,0,0,0-1.75.394l-5.227-5.249a4.152,4.152,0,1,0-7.917-1.75,4.374,4.374,0,0,0,.394,1.771L107.96,165a4.244,4.244,0,0,0-2.1-.569,4.155,4.155,0,1,0,4.155,4.155,4.054,4.054,0,0,0-.241-1.378l9.666-9.666a4.189,4.189,0,0,0,1.749.394,4.37,4.37,0,0,0,1.771-.394l5.183,5.2a4.149,4.149,0,1,0,7.545.022L148,150.437a4.152,4.152,0,1,0,1.749-7.916ZM105.86,169.9a1.312,1.312,0,1,1,1.312-1.312A1.316,1.316,0,0,1,105.86,169.9Zm15.33-14.827a1.312,1.312,0,1,1,1.312-1.312A1.316,1.316,0,0,1,121.19,155.074Zm10.716,10.716a1.312,1.312,0,1,1,1.312-1.312A1.316,1.316,0,0,1,131.906,165.79Zm17.823-17.823a1.312,1.312,0,1,1,1.312-1.312A1.316,1.316,0,0,1,149.729,147.966Z" transform="translate(-101.705 -142.521)"/></g><g transform="translate(0.001)"><g transform="translate(0)"><path class="b" d="M65.914,56.313V0H0V56.313H20.558V63.07H15.134v2.843H50.781V63.07H45.357V56.313ZM2.844,2.843H63.071v42.4H2.844ZM42.514,63.07H23.4V56.313H42.514Zm-39.67-9.6V48.09H63.071v5.38Z" transform="translate(-0.001)"/></g></g></g></svg>