<svg xmlns="http://www.w3.org/2000/svg" width="90.962" height="85.518" viewBox="0 0 90.962 85.518"><defs><style>.a{opacity:0.1;}.b{fill:#545ee4;}</style></defs><g class="a" transform="matrix(-0.454, 0.891, -0.891, -0.454, -84.503, 60.31)"><path class="b" d="M-48.243-131.2c5.763,9.417,3.5,24.075-3.393,36.906C-58.551-81.466-70.1-70.461-78.8-72.092-87.476-73.745-93.326-88.077-98-99.6c-4.676-11.548-8.2-20.334-5.263-28.1,2.914-7.786,12.266-14.549,23.836-15.832C-67.837-144.839-54.028-140.62-48.243-131.2Z" transform="translate(0 0)"/></g><g transform="translate(25.297 27.659)"><path class="b" d="M40.294,15.283,45.075,10.5a.885.885,0,0,0-.2-1.4L39.127,5.944A.885.885,0,1,0,38.275,7.5l4.714,2.588-4.1,4.1-14.757-8.1,4.1-4.1,4.147,2.278a.885.885,0,0,0,.852-1.552L28.5.109a.885.885,0,0,0-1.052.15L22.667,5.04,17.886.259a.886.886,0,0,0-1.052-.15L.459,9.1a.886.886,0,0,0-.2,1.4l4.781,4.781L.26,20.064a.885.885,0,0,0,.2,1.4l4.948,2.717v9.082a.886.886,0,0,0,.459.776l16.374,8.991a.885.885,0,0,0,.852,0l16.374-8.991a.886.886,0,0,0,.459-.776V24.183l4.948-2.717a.886.886,0,0,0,.2-1.4ZM22.667,23.264,8.133,15.283,22.667,7.3,37.2,15.283ZM17.1,1.981l4.1,4.1-14.757,8.1-4.1-4.1ZM6.45,16.379l14.757,8.1-4.1,4.1-14.758-8.1ZM38.156,32.741l-14.6,8.019V31.709a.885.885,0,0,0-1.771,0V40.76l-14.6-8.019V25.156l9.655,5.3a.885.885,0,0,0,1.052-.15l4.781-4.781,4.781,4.781a.885.885,0,0,0,1.052.15l9.655-5.3Zm-9.925-4.156-4.1-4.1,14.757-8.1,4.1,4.1Zm0,0" transform="translate(0 0)"/><path class="b" d="M395.686,49.947a.886.886,0,1,0-.626-.26A.893.893,0,0,0,395.686,49.947Zm0,0" transform="translate(-359.844 -43.911)"/><path class="b" d="M246.885,314.926a.886.886,0,1,0,.626.259A.891.891,0,0,0,246.885,314.926Zm0,0" transform="translate(-224.218 -287.042)"/></g></svg>