<svg xmlns="http://www.w3.org/2000/svg" width="152.854" height="166.376" viewBox="0 0 152.854 166.376"><defs><style>.a{opacity:0.25;}.b{fill:#5b74ff;}</style></defs><g class="a" transform="translate(-0.433 49.438) rotate(-30)"><path class="b" d="M242.573,31.911,211.242.58a2,2,0,0,0-1.4-.58H198.591a1.982,1.982,0,0,0,0,3.964h9.267V28.8a6.5,6.5,0,0,0,6.5,6.5h24.834V70.4a1.982,1.982,0,1,0,3.964,0V33.313a1.989,1.989,0,0,0-.58-1.4ZM211.822,28.8V6.768l24.563,24.563h-22.03a2.536,2.536,0,0,1-2.532-2.533Zm0,0" transform="translate(-144.279)"/><path class="b" d="M77.211,148.3a4.3,4.3,0,0,0-4.295-4.294H67.256a4.3,4.3,0,0,0-4.295,4.294v5.662a4.3,4.3,0,0,0,4.295,4.295h5.661a4.3,4.3,0,0,0,4.295-4.295Zm-3.964,5.662a.339.339,0,0,1-.33.33H67.256a.339.339,0,0,1-.329-.33V148.3a.338.338,0,0,1,.329-.329h5.661a.338.338,0,0,1,.33.329Zm0,0" transform="translate(-45.953 -105.948)"/><path class="b" d="M77.211,230.2a4.3,4.3,0,0,0-4.295-4.295H67.256a4.3,4.3,0,0,0-4.295,4.295v5.661a4.3,4.3,0,0,0,4.295,4.295h5.661a4.3,4.3,0,0,0,4.295-4.295Zm-3.964,5.661a.338.338,0,0,1-.33.329H67.256a.338.338,0,0,1-.329-.329V230.2a.338.338,0,0,1,.329-.33h5.661a.338.338,0,0,1,.33.33Zm0,0" transform="translate(-45.953 -166.204)"/><path class="b" d="M72.916,389.715H67.256a4.3,4.3,0,0,0-4.295,4.294v5.662a4.3,4.3,0,0,0,4.295,4.295h5.661a4.3,4.3,0,0,0,4.295-4.295v-5.662A4.3,4.3,0,0,0,72.916,389.715Zm.33,9.955a.338.338,0,0,1-.33.329H67.256a.338.338,0,0,1-.329-.329v-5.662a.338.338,0,0,1,.329-.329h5.661a.338.338,0,0,1,.33.329Zm0,0" transform="translate(-45.953 -286.716)"/><path class="b" d="M135.656,165.447a1.982,1.982,0,0,0,1.982,1.983h39.4a1.983,1.983,0,0,0,0-3.965h-39.4A1.982,1.982,0,0,0,135.656,165.447Zm0,0" transform="translate(-99.435 -120.263)"/><path class="b" d="M137.638,198.452h29.789a1.982,1.982,0,1,0,0-3.964H137.638a1.982,1.982,0,1,0,0,3.964Zm0,0" transform="translate(-99.435 -143.086)"/><path class="b" d="M177.033,245.367h-39.4a1.982,1.982,0,0,0,0,3.964h39.4a1.982,1.982,0,0,0,0-3.964Zm0,0" transform="translate(-99.435 -180.519)"/><path class="b" d="M137.638,280.355h29.789a1.982,1.982,0,1,0,0-3.964H137.638a1.982,1.982,0,1,0,0,3.964Zm0,0" transform="translate(-99.435 -203.343)"/><path class="b" d="M77.211,312.108a4.3,4.3,0,0,0-4.295-4.295H67.256a4.3,4.3,0,0,0-4.295,4.295v5.661a4.3,4.3,0,0,0,4.295,4.295h5.661a4.3,4.3,0,0,0,4.295-4.295Zm-3.964,5.661a.338.338,0,0,1-.33.329H67.256a.338.338,0,0,1-.329-.329v-5.661a.338.338,0,0,1,.329-.33h5.661a.338.338,0,0,1,.33.33Zm0,0" transform="translate(-45.953 -226.46)"/><path class="b" d="M177.033,327.27h-39.4a1.982,1.982,0,1,0,0,3.964h39.4a1.982,1.982,0,1,0,0-3.964Zm0,0" transform="translate(-99.435 -240.775)"/><path class="b" d="M137.638,362.257h29.789a1.982,1.982,0,0,0,0-3.964H137.638a1.982,1.982,0,0,0,0,3.964Zm0,0" transform="translate(-99.435 -263.599)"/><path class="b" d="M179.016,411.154a1.983,1.983,0,0,0-1.982-1.982h-39.4a1.982,1.982,0,1,0,0,3.964h39.4A1.982,1.982,0,0,0,179.016,411.154Zm0,0" transform="translate(-99.435 -301.031)"/><path class="b" d="M137.638,440.2a1.982,1.982,0,1,0,0,3.964h29.789a1.982,1.982,0,1,0,0-3.964Zm0,0" transform="translate(-99.435 -323.855)"/><path class="b" d="M45.062,0H7A6.5,6.5,0,0,0,.5,6.5V128.82a6.505,6.505,0,0,0,6.5,6.5H92.377a6.506,6.506,0,0,0,6.5-6.5V79.655a1.982,1.982,0,1,0-3.964,0V128.82a2.537,2.537,0,0,1-2.534,2.533H7a2.537,2.537,0,0,1-2.533-2.533V6.5A2.537,2.537,0,0,1,7,3.964H45.062a1.982,1.982,0,1,0,0-3.964Zm0,0" transform="translate(0 0)"/></g></svg>